<?xml version="1.0" encoding="UTF-8"?>
<svg version="1.1" viewBox="0 0 957.48 1029.7" xmlns="http://www.w3.org/2000/svg" xmlns:xlink="http://www.w3.org/1999/xlink">
 <defs>
  <linearGradient id="g">
   <stop stop-color="#ffc117" offset="0"/>
   <stop stop-color="#906800" offset=".26471"/>
   <stop stop-color="#ffc73e" offset=".44881"/>
   <stop stop-color="#ffeec6" offset=".63292"/>
   <stop stop-color="#c68800" offset=".903"/>
   <stop stop-color="#ffc052" offset="1"/>
  </linearGradient>
  <linearGradient id="k">
   <stop stop-color="#00a" offset="0"/>
   <stop stop-color="#4c4cff" offset=".25"/>
   <stop stop-color="#00f" offset=".64438"/>
   <stop stop-color="#000090" offset="1"/>
  </linearGradient>
  <linearGradient id="l">
   <stop stop-color="#b7b7b7" offset="0"/>
   <stop stop-color="#fff" offset=".30997"/>
   <stop stop-color="#e0e0e0" offset=".60795"/>
   <stop stop-color="#b2b2b2" offset="1"/>
  </linearGradient>
  <linearGradient id="m">
   <stop stop-color="#ad0000" offset="0"/>
   <stop stop-color="#f66" offset=".28737"/>
   <stop stop-color="#f00" offset=".59344"/>
   <stop stop-color="#be0000" offset="1"/>
  </linearGradient>
  <linearGradient id="c" x1="259.12" x2="322.09" y1="478.99" y2="478.99" gradientUnits="userSpaceOnUse" xlink:href="#k"/>
  <linearGradient id="b" x1="250.75" x2="334.97" y1="378.23" y2="378.23" gradientUnits="userSpaceOnUse" xlink:href="#l"/>
  <linearGradient id="a" x1="243.46" x2="351.53" y1="291.86" y2="289.84" gradientUnits="userSpaceOnUse" xlink:href="#m"/>
  <filter id="n" color-interpolation-filters="sRGB">
   <feGaussianBlur stdDeviation="9.136197"/>
  </filter>
  <linearGradient id="f" x1="-270.15" x2="-192.9" y1="191.06" y2="293.62" gradientUnits="userSpaceOnUse">
   <stop stop-color="#33f" offset="0"/>
   <stop stop-color="#00f" offset="1"/>
  </linearGradient>
  <linearGradient id="e" x1="-150.96" x2="-313.47" y1="324.11" y2="157.8" gradientUnits="userSpaceOnUse">
   <stop stop-color="#000071" offset="0"/>
   <stop stop-color="#7474ff" offset="1"/>
  </linearGradient>
  <linearGradient id="d" x1="271.75" x2="276.2" y1="529.52" y2="717.41" gradientUnits="userSpaceOnUse" xlink:href="#g"/>
  <linearGradient id="j" x1="266.31" x2="364.22" y1="748.07" y2="1096.6" gradientUnits="userSpaceOnUse">
   <stop stop-color="#0000a7" offset="0"/>
   <stop stop-color="#3e3eff" offset=".28121"/>
   <stop stop-color="#0000d3" offset=".49832"/>
   <stop stop-color="#4f4fff" offset=".78084"/>
   <stop stop-color="#0000c9" offset="1"/>
  </linearGradient>
  <linearGradient id="i" x1="274.32" x2="545.34" y1="805.43" y2="1036.9" gradientUnits="userSpaceOnUse">
   <stop stop-color="#d0d0d0" offset="0"/>
   <stop stop-color="#f2f2f2" offset=".25124"/>
   <stop stop-color="#aeaeae" offset=".47052"/>
   <stop stop-color="#fff" offset=".76233"/>
   <stop stop-color="#dadada" offset="1"/>
  </linearGradient>
  <linearGradient id="h" x1="299.78" x2="644.35" y1="748.77" y2="903.05" gradientUnits="userSpaceOnUse">
   <stop stop-color="#c10000" offset="0"/>
   <stop stop-color="#ff1a1a" offset=".26318"/>
   <stop stop-color="#c00" offset=".52393"/>
   <stop stop-color="#ff3939" offset=".84982"/>
   <stop stop-color="#cf0000" offset="1"/>
  </linearGradient>
  <filter id="p" color-interpolation-filters="sRGB">
   <feGaussianBlur stdDeviation="9.5950416"/>
  </filter>
  <filter id="o">
   <feGaussianBlur stdDeviation="2.020305"/>
  </filter>
 </defs>
 <g transform="translate(197.93 -143.41)">
  <path transform="translate(-175.99 165.35)" d="m434 0c-5.0204 0.16365-10.48 1.7723-16.562 5.25l4.3125 48.281c-24.166-17.996-43.278-47.557-66.75-42.625-4.9157 1.033-9.9885 3.5814-15.375 8.0625l12.625 46.781c-26.929-13.525-50.862-39.31-73.125-30.375-4.6616 1.8708-9.2235 5.2453-13.75 10.594l20.562 43.875c-28.861-8.6469-56.913-29.88-77.281-17.219-4.266 2.6519-8.1897 6.7593-11.719 12.812l27.875 39.656c-29.931-3.4986-61.229-19.541-79.094-3.5312-3.7406 3.3524-6.8882 8.0822-9.3125 14.656l34.344 34.188c-30.087 1.7552-63.717-8.6213-78.531 10.25-3.1017 3.951-5.3791 9.1674-6.625 16.062l39.75 27.719c-29.321 6.9477-64.221 2.5967-75.531 23.75-2.3685 4.4296-3.7204 9.962-3.75 16.969l43.938 20.375c-27.664 11.92-62.788 13.714-70.25 36.5-1.5633 4.7736-1.9063 10.438-0.71875 17.344l46.844 12.438c-25.177 16.558-59.481 24.41-62.875 48.156-0.71062 4.9725-0.08734 10.624 2.2812 17.219l48.281 4.125c-21.919 20.668-54.344 34.345-53.562 58.312 0.16365 5.0204 1.7723 10.48 5.25 16.562l48.281-4.3125c-17.996 24.166-47.557 43.247-42.625 66.719 1.0329 4.9157 3.5814 10.02 8.0625 15.406l46.781-12.625c-13.525 26.929-39.31 50.862-30.375 73.125 1.8708 4.6616 5.2453 9.2234 10.594 13.75l43.875-20.562c-8.6469 28.861-29.88 56.913-17.219 77.281 2.6519 4.266 6.7593 8.1897 12.812 11.719l39.656-27.875c-3.4986 29.931-19.541 61.229-3.5312 79.094 3.3524 3.7406 8.0822 6.8882 14.656 9.3125l34.188-34.344c1.7552 30.087-8.6213 63.717 10.25 78.531 3.951 3.1017 9.1674 5.3791 16.062 6.625l27.719-39.75c6.946 29.32 2.5979 64.221 23.75 75.531 4.4296 2.3685 9.962 3.7203 16.969 3.75l20.375-43.938c11.92 27.664 13.714 62.788 36.5 70.25 4.7736 1.5632 10.438 1.9062 17.344 0.71875l12.438-46.844c16.558 25.177 24.41 59.481 48.156 62.875 4.9725 0.7106 10.624 0.087 17.219-2.2812l4.125-48.281c20.668 21.919 34.345 54.312 58.312 53.531 5.0204-0.1637 10.48-1.7723 16.562-5.25l-4.3125-48.25c24.166 17.996 43.247 47.557 66.719 42.625 4.9157-1.033 10.02-3.5814 15.406-8.0625l-12.625-46.781c26.929 13.525 50.862 39.31 73.125 30.375 4.6616-1.8708 9.2234-5.2452 13.75-10.594l-20.562-43.875c28.861 8.6469 56.913 29.88 77.281 17.219 4.266-2.6519 8.1897-6.7906 11.719-12.844l-27.875-39.625c29.931 3.4986 61.229 19.541 79.094 3.5312 3.7406-3.3524 6.8882-8.0822 9.3125-14.656l-34.312-34.188c30.079-1.7463 63.691 8.5836 78.5-10.281 3.1017-3.951 5.3791-9.1674 6.625-16.062l-39.719-27.688c29.314-6.936 64.194-2.605 75.5-23.75 2.3685-4.4296 3.7204-9.962 3.75-16.969l-43.938-20.375c27.664-11.92 62.788-13.714 70.25-36.5 1.5633-4.7736 1.9063-10.438 0.71875-17.344l-46.844-12.438c25.177-16.558 59.481-24.41 62.875-48.156 0.71062-4.9725 0.0873-10.624-2.2812-17.219l-48.312-4.125c21.92-20.685 54.344-34.333 53.562-58.312-0.16365-5.0204-1.7723-10.48-5.25-16.562l-48.25 4.3125c17.996-24.166 47.557-43.278 42.625-66.75-1.0329-4.9157-3.5814-9.9885-8.0625-15.375l-46.781 12.625c13.525-26.929 39.31-50.862 30.375-73.125-1.8708-4.6616-5.2453-9.2234-10.594-13.75l-43.875 20.562c8.6469-28.861 29.88-56.913 17.219-77.281-2.6519-4.266-6.7906-8.1897-12.844-11.719l-39.625 27.875c3.4986-29.931 19.541-61.229 3.5312-79.094-3.3524-3.7406-8.0822-6.8882-14.656-9.3125l-34.188 34.312c-1.7463-30.079 8.5836-63.691-10.281-78.5-3.951-3.1017-9.1674-5.3791-16.062-6.625l-27.688 39.719c-6.9378-29.315-2.6038-64.193-23.75-75.5-4.4296-2.3685-9.962-3.7204-16.969-3.75l-20.375 43.938c-11.92-27.664-13.714-62.788-36.5-70.25-4.7736-1.5633-10.438-1.9063-17.344-0.71875l-12.438 46.844c-16.558-25.177-24.41-59.481-48.156-62.875-4.9725-0.71062-10.624-0.08734-17.219 2.2812l-4.125 48.312c-9.3655-9.9245-17.277-22.009-25.375-32.188-0.78141-0.98212-1.5578-1.9318-2.3438-2.875-0.45322-0.54391-0.88824-1.0647-1.3438-1.5938-0.37505-0.43589-0.74808-0.85629-1.125-1.2812-0.2462-0.2774-0.50288-0.54006-0.75-0.8125-0.59373-0.65516-1.1814-1.313-1.7812-1.9375-0.0311-0.03232-0.0627-0.06151-0.0937-0.09375-0.81567-0.84653-1.6391-1.6545-2.4688-2.4375-0.45718-0.43131-0.91286-0.83977-1.375-1.25-0.41112-0.36526-0.80343-0.71487-1.2188-1.0625-0.2421-0.20257-0.4751-0.39741-0.71875-0.59375-0.19789-0.15957-0.39479-0.31339-0.59375-0.46875-0.4673-0.36466-0.93272-0.72195-1.4062-1.0625-0.42464-0.30578-0.85123-0.58956-1.2812-0.875-0.25179-0.16688-0.49627-0.34033-0.75-0.5-0.20609-0.12994-0.41759-0.24992-0.625-0.375-1.1706-0.70461-2.3771-1.3353-3.5938-1.875-0.22595-0.1004-0.45982-0.1869-0.6875-0.28125-0.50486-0.20904-0.9863-0.41526-1.5-0.59375-0.47938-0.16734-0.95001-0.2978-1.4375-0.4375-0.26115-0.074743-0.51769-0.15215-0.78125-0.21875-0.24144-0.061141-0.47524-0.13332-0.71875-0.1875-0.0412-0.009155-0.0837-0.022296-0.125-0.03125-0.47531-0.10322-0.95402-0.17393-1.4375-0.25-0.50833-0.080283-1.0135-0.13816-1.5312-0.1875-0.0103-9.8714e-4 -0.0209 9.7465e-4 -0.0312 0-1.0567-0.099365-2.1206-0.1608-3.2188-0.125z" fill="#333" filter="url(#n)"/>
  <g transform="translate(0 -41.294)">
   <path d="m322.09 445.78c-3.6431-4.7194-7.1835-9.5186-10.656-14.125-1.8701-2.4806-3.7163-4.9144-5.5938-7.2188s-3.7942-4.4721-5.7188-6.5-3.8637-3.9115-5.875-5.5625-4.0809-3.0762-6.2188-4.25-4.3521-2.0914-6.6562-2.6875c-1.1521-0.29807-2.3301-0.5214-3.5312-0.65625s-2.4324-0.16591-3.6875-0.125c-1.2551 0.0409-2.5297 0.14578-3.8438 0.375s-2.6533 0.56992-4.0312 1-2.8032 0.95027-4.25 1.5938c-0.94838 0.42178-1.9265 0.98207-2.9062 1.5l11.594 129.06 32.312 15.156 19.062-107.56z" fill="url(#c)"/>
   <path d="m267.09 310.69c-1.2551 0.0409-2.5297 0.17703-3.8438 0.40625s-2.6533 0.56992-4.0312 1-2.8032 0.95027-4.25 1.5938c-1.3739 0.61102-2.7784 1.3418-4.2188 2.1562l8.375 93.281c0.97974-0.51793 1.9579-1.0782 2.9062-1.5 1.4468-0.64348 2.872-1.1637 4.25-1.5938s2.7172-0.77078 4.0312-1 2.5887-0.33409 3.8438-0.375c1.2551-0.0409 2.4864-0.01 3.6875 0.125 1.2011 0.13485 2.3792 0.35818 3.5312 0.65625 2.3042 0.59615 4.5184 1.5138 6.6562 2.6875s4.2074 2.599 6.2188 4.25 3.9505 3.5346 5.875 5.5625 3.8413 4.1956 5.7188 6.5 3.7237 4.7382 5.5938 7.2188c3.4728 4.6064 7.0131 9.4056 10.656 14.125l12.875-72.75c-2.2786-1.7696-4.4841-3.6936-6.5938-5.75-2.238-2.1815-4.3823-4.4994-6.4688-6.9062s-4.1192-4.9057-6.0938-7.4375c-3.9491-5.0635-7.6973-10.258-11.438-15.219-1.8701-2.4806-3.7476-4.9144-5.625-7.2188s-3.763-4.5034-5.6875-6.5312-3.8637-3.8802-5.875-5.5312-4.0809-3.0762-6.2188-4.25-4.3521-2.0914-6.6562-2.6875c-1.1521-0.29807-2.3301-0.5214-3.5312-0.65625s-2.4324-0.19716-3.6875-0.15625z" fill="url(#b)"/>
   <path d="m258 206.66c-5.0204 0.16365-10.48 1.7723-16.562 5.25l9.3125 103.94c1.4403-0.81446 2.8449-1.5452 4.2188-2.1562 1.4468-0.64348 2.872-1.1637 4.25-1.5938s2.7172-0.77078 4.0312-1 2.5887-0.36534 3.8438-0.40625c1.2551-0.0409 2.4864 0.0214 3.6875 0.15625s2.3792 0.35818 3.5312 0.65625c2.3042 0.59615 4.5184 1.5138 6.6562 2.6875s4.2074 2.599 6.2188 4.25 3.9505 3.5034 5.875 5.5312 3.8101 4.2269 5.6875 6.5312 3.7549 4.7382 5.625 7.2188c3.7402 4.9611 7.4884 10.155 11.438 15.219 1.9746 2.5318 4.0073 5.0307 6.0938 7.4375s4.2308 4.7247 6.4688 6.9062c2.1097 2.0564 4.3151 3.9804 6.5938 5.75l16.562-93.438c-45.382-3.8738-58.389-74.083-93.531-72.938z" fill="url(#a)"/>
   <g transform="matrix(.98481 .17365 -.17365 .98481 119.47 -38.685)">
    <path d="m322.09 445.78c-3.6431-4.7194-7.1835-9.5186-10.656-14.125-1.8701-2.4806-3.7163-4.9144-5.5938-7.2188s-3.7942-4.4721-5.7188-6.5-3.8637-3.9115-5.875-5.5625-4.0809-3.0762-6.2188-4.25-4.3521-2.0914-6.6562-2.6875c-1.1521-0.29807-2.3301-0.5214-3.5312-0.65625s-2.4324-0.16591-3.6875-0.125c-1.2551 0.0409-2.5297 0.14578-3.8438 0.375s-2.6533 0.56992-4.0312 1-2.8032 0.95027-4.25 1.5938c-0.94838 0.42178-1.9265 0.98207-2.9062 1.5l11.594 129.06 32.312 15.156 19.062-107.56z" fill="url(#c)"/>
    <path d="m267.09 310.69c-1.2551 0.0409-2.5297 0.17703-3.8438 0.40625s-2.6533 0.56992-4.0312 1-2.8032 0.95027-4.25 1.5938c-1.3739 0.61102-2.7784 1.3418-4.2188 2.1562l8.375 93.281c0.97974-0.51793 1.9579-1.0782 2.9062-1.5 1.4468-0.64348 2.872-1.1637 4.25-1.5938s2.7172-0.77078 4.0312-1 2.5887-0.33409 3.8438-0.375c1.2551-0.0409 2.4864-0.01 3.6875 0.125 1.2011 0.13485 2.3792 0.35818 3.5312 0.65625 2.3042 0.59615 4.5184 1.5138 6.6562 2.6875s4.2074 2.599 6.2188 4.25 3.9505 3.5346 5.875 5.5625 3.8413 4.1956 5.7188 6.5 3.7237 4.7382 5.5938 7.2188c3.4728 4.6064 7.0131 9.4056 10.656 14.125l12.875-72.75c-2.2786-1.7696-4.4841-3.6936-6.5938-5.75-2.238-2.1815-4.3823-4.4994-6.4688-6.9062s-4.1192-4.9057-6.0938-7.4375c-3.9491-5.0635-7.6973-10.258-11.438-15.219-1.8701-2.4806-3.7476-4.9144-5.625-7.2188s-3.763-4.5034-5.6875-6.5312-3.8637-3.8802-5.875-5.5312-4.0809-3.0762-6.2188-4.25-4.3521-2.0914-6.6562-2.6875c-1.1521-0.29807-2.3301-0.5214-3.5312-0.65625s-2.4324-0.19716-3.6875-0.15625z" fill="url(#b)"/>
    <path d="m258 206.66c-5.0204 0.16365-10.48 1.7723-16.562 5.25l9.3125 103.94c1.4403-0.81446 2.8449-1.5452 4.2188-2.1562 1.4468-0.64348 2.872-1.1637 4.25-1.5938s2.7172-0.77078 4.0312-1 2.5887-0.36534 3.8438-0.40625c1.2551-0.0409 2.4864 0.0214 3.6875 0.15625s2.3792 0.35818 3.5312 0.65625c2.3042 0.59615 4.5184 1.5138 6.6562 2.6875s4.2074 2.599 6.2188 4.25 3.9505 3.5034 5.875 5.5312 3.8101 4.2269 5.6875 6.5312 3.7549 4.7382 5.625 7.2188c3.7402 4.9611 7.4884 10.155 11.438 15.219 1.9746 2.5318 4.0073 5.0307 6.0938 7.4375s4.2308 4.7247 6.4688 6.9062c2.1097 2.0564 4.3151 3.9804 6.5938 5.75l16.562-93.438c-45.382-3.8738-58.389-74.083-93.531-72.938z" fill="url(#a)"/>
   </g>
   <g transform="matrix(.93969 .34202 -.34202 .93969 243.85 -56.036)">
    <path d="m322.09 445.78c-3.6431-4.7194-7.1835-9.5186-10.656-14.125-1.8701-2.4806-3.7163-4.9144-5.5938-7.2188s-3.7942-4.4721-5.7188-6.5-3.8637-3.9115-5.875-5.5625-4.0809-3.0762-6.2188-4.25-4.3521-2.0914-6.6562-2.6875c-1.1521-0.29807-2.3301-0.5214-3.5312-0.65625s-2.4324-0.16591-3.6875-0.125c-1.2551 0.0409-2.5297 0.14578-3.8438 0.375s-2.6533 0.56992-4.0312 1-2.8032 0.95027-4.25 1.5938c-0.94838 0.42178-1.9265 0.98207-2.9062 1.5l11.594 129.06 32.312 15.156 19.062-107.56z" fill="url(#c)"/>
    <path d="m267.09 310.69c-1.2551 0.0409-2.5297 0.17703-3.8438 0.40625s-2.6533 0.56992-4.0312 1-2.8032 0.95027-4.25 1.5938c-1.3739 0.61102-2.7784 1.3418-4.2188 2.1562l8.375 93.281c0.97974-0.51793 1.9579-1.0782 2.9062-1.5 1.4468-0.64348 2.872-1.1637 4.25-1.5938s2.7172-0.77078 4.0312-1 2.5887-0.33409 3.8438-0.375c1.2551-0.0409 2.4864-0.01 3.6875 0.125 1.2011 0.13485 2.3792 0.35818 3.5312 0.65625 2.3042 0.59615 4.5184 1.5138 6.6562 2.6875s4.2074 2.599 6.2188 4.25 3.9505 3.5346 5.875 5.5625 3.8413 4.1956 5.7188 6.5 3.7237 4.7382 5.5938 7.2188c3.4728 4.6064 7.0131 9.4056 10.656 14.125l12.875-72.75c-2.2786-1.7696-4.4841-3.6936-6.5938-5.75-2.238-2.1815-4.3823-4.4994-6.4688-6.9062s-4.1192-4.9057-6.0938-7.4375c-3.9491-5.0635-7.6973-10.258-11.438-15.219-1.8701-2.4806-3.7476-4.9144-5.625-7.2188s-3.763-4.5034-5.6875-6.5312-3.8637-3.8802-5.875-5.5312-4.0809-3.0762-6.2188-4.25-4.3521-2.0914-6.6562-2.6875c-1.1521-0.29807-2.3301-0.5214-3.5312-0.65625s-2.4324-0.19716-3.6875-0.15625z" fill="url(#b)"/>
    <path d="m258 206.66c-5.0204 0.16365-10.48 1.7723-16.562 5.25l9.3125 103.94c1.4403-0.81446 2.8449-1.5452 4.2188-2.1562 1.4468-0.64348 2.872-1.1637 4.25-1.5938s2.7172-0.77078 4.0312-1 2.5887-0.36534 3.8438-0.40625c1.2551-0.0409 2.4864 0.0214 3.6875 0.15625s2.3792 0.35818 3.5312 0.65625c2.3042 0.59615 4.5184 1.5138 6.6562 2.6875s4.2074 2.599 6.2188 4.25 3.9505 3.5034 5.875 5.5312 3.8101 4.2269 5.6875 6.5312 3.7549 4.7382 5.625 7.2188c3.7402 4.9611 7.4884 10.155 11.438 15.219 1.9746 2.5318 4.0073 5.0307 6.0938 7.4375s4.2308 4.7247 6.4688 6.9062c2.1097 2.0564 4.3151 3.9804 6.5938 5.75l16.562-93.438c-45.382-3.8738-58.389-74.083-93.531-72.938z" fill="url(#a)"/>
   </g>
   <g transform="matrix(.86603 .5 -.5 .86603 369.35 -51.525)">
    <path d="m322.09 445.78c-3.6431-4.7194-7.1835-9.5186-10.656-14.125-1.8701-2.4806-3.7163-4.9144-5.5938-7.2188s-3.7942-4.4721-5.7188-6.5-3.8637-3.9115-5.875-5.5625-4.0809-3.0762-6.2188-4.25-4.3521-2.0914-6.6562-2.6875c-1.1521-0.29807-2.3301-0.5214-3.5312-0.65625s-2.4324-0.16591-3.6875-0.125c-1.2551 0.0409-2.5297 0.14578-3.8438 0.375s-2.6533 0.56992-4.0312 1-2.8032 0.95027-4.25 1.5938c-0.94838 0.42178-1.9265 0.98207-2.9062 1.5l11.594 129.06 32.312 15.156 19.062-107.56z" fill="url(#c)"/>
    <path d="m267.09 310.69c-1.2551 0.0409-2.5297 0.17703-3.8438 0.40625s-2.6533 0.56992-4.0312 1-2.8032 0.95027-4.25 1.5938c-1.3739 0.61102-2.7784 1.3418-4.2188 2.1562l8.375 93.281c0.97974-0.51793 1.9579-1.0782 2.9062-1.5 1.4468-0.64348 2.872-1.1637 4.25-1.5938s2.7172-0.77078 4.0312-1 2.5887-0.33409 3.8438-0.375c1.2551-0.0409 2.4864-0.01 3.6875 0.125 1.2011 0.13485 2.3792 0.35818 3.5312 0.65625 2.3042 0.59615 4.5184 1.5138 6.6562 2.6875s4.2074 2.599 6.2188 4.25 3.9505 3.5346 5.875 5.5625 3.8413 4.1956 5.7188 6.5 3.7237 4.7382 5.5938 7.2188c3.4728 4.6064 7.0131 9.4056 10.656 14.125l12.875-72.75c-2.2786-1.7696-4.4841-3.6936-6.5938-5.75-2.238-2.1815-4.3823-4.4994-6.4688-6.9062s-4.1192-4.9057-6.0938-7.4375c-3.9491-5.0635-7.6973-10.258-11.438-15.219-1.8701-2.4806-3.7476-4.9144-5.625-7.2188s-3.763-4.5034-5.6875-6.5312-3.8637-3.8802-5.875-5.5312-4.0809-3.0762-6.2188-4.25-4.3521-2.0914-6.6562-2.6875c-1.1521-0.29807-2.3301-0.5214-3.5312-0.65625s-2.4324-0.19716-3.6875-0.15625z" fill="url(#b)"/>
    <path d="m258 206.66c-5.0204 0.16365-10.48 1.7723-16.562 5.25l9.3125 103.94c1.4403-0.81446 2.8449-1.5452 4.2188-2.1562 1.4468-0.64348 2.872-1.1637 4.25-1.5938s2.7172-0.77078 4.0312-1 2.5887-0.36534 3.8438-0.40625c1.2551-0.0409 2.4864 0.0214 3.6875 0.15625s2.3792 0.35818 3.5312 0.65625c2.3042 0.59615 4.5184 1.5138 6.6562 2.6875s4.2074 2.599 6.2188 4.25 3.9505 3.5034 5.875 5.5312 3.8101 4.2269 5.6875 6.5312 3.7549 4.7382 5.625 7.2188c3.7402 4.9611 7.4884 10.155 11.438 15.219 1.9746 2.5318 4.0073 5.0307 6.0938 7.4375s4.2308 4.7247 6.4688 6.9062c2.1097 2.0564 4.3151 3.9804 6.5938 5.75l16.562-93.438c-45.382-3.8738-58.389-74.083-93.531-72.938z" fill="url(#a)"/>
   </g>
   <g transform="matrix(.76604 .64279 -.64279 .76604 492.16 -25.291)">
    <path d="m322.09 445.78c-3.6431-4.7194-7.1835-9.5186-10.656-14.125-1.8701-2.4806-3.7163-4.9144-5.5938-7.2188s-3.7942-4.4721-5.7188-6.5-3.8637-3.9115-5.875-5.5625-4.0809-3.0762-6.2188-4.25-4.3521-2.0914-6.6562-2.6875c-1.1521-0.29807-2.3301-0.5214-3.5312-0.65625s-2.4324-0.16591-3.6875-0.125c-1.2551 0.0409-2.5297 0.14578-3.8438 0.375s-2.6533 0.56992-4.0312 1-2.8032 0.95027-4.25 1.5938c-0.94838 0.42178-1.9265 0.98207-2.9062 1.5l11.594 129.06 32.312 15.156 19.062-107.56z" fill="url(#c)"/>
    <path d="m267.09 310.69c-1.2551 0.0409-2.5297 0.17703-3.8438 0.40625s-2.6533 0.56992-4.0312 1-2.8032 0.95027-4.25 1.5938c-1.3739 0.61102-2.7784 1.3418-4.2188 2.1562l8.375 93.281c0.97974-0.51793 1.9579-1.0782 2.9062-1.5 1.4468-0.64348 2.872-1.1637 4.25-1.5938s2.7172-0.77078 4.0312-1 2.5887-0.33409 3.8438-0.375c1.2551-0.0409 2.4864-0.01 3.6875 0.125 1.2011 0.13485 2.3792 0.35818 3.5312 0.65625 2.3042 0.59615 4.5184 1.5138 6.6562 2.6875s4.2074 2.599 6.2188 4.25 3.9505 3.5346 5.875 5.5625 3.8413 4.1956 5.7188 6.5 3.7237 4.7382 5.5938 7.2188c3.4728 4.6064 7.0131 9.4056 10.656 14.125l12.875-72.75c-2.2786-1.7696-4.4841-3.6936-6.5938-5.75-2.238-2.1815-4.3823-4.4994-6.4688-6.9062s-4.1192-4.9057-6.0938-7.4375c-3.9491-5.0635-7.6973-10.258-11.438-15.219-1.8701-2.4806-3.7476-4.9144-5.625-7.2188s-3.763-4.5034-5.6875-6.5312-3.8637-3.8802-5.875-5.5312-4.0809-3.0762-6.2188-4.25-4.3521-2.0914-6.6562-2.6875c-1.1521-0.29807-2.3301-0.5214-3.5312-0.65625s-2.4324-0.19716-3.6875-0.15625z" fill="url(#b)"/>
    <path d="m258 206.66c-5.0204 0.16365-10.48 1.7723-16.562 5.25l9.3125 103.94c1.4403-0.81446 2.8449-1.5452 4.2188-2.1562 1.4468-0.64348 2.872-1.1637 4.25-1.5938s2.7172-0.77078 4.0312-1 2.5887-0.36534 3.8438-0.40625c1.2551-0.0409 2.4864 0.0214 3.6875 0.15625s2.3792 0.35818 3.5312 0.65625c2.3042 0.59615 4.5184 1.5138 6.6562 2.6875s4.2074 2.599 6.2188 4.25 3.9505 3.5034 5.875 5.5312 3.8101 4.2269 5.6875 6.5312 3.7549 4.7382 5.625 7.2188c3.7402 4.9611 7.4884 10.155 11.438 15.219 1.9746 2.5318 4.0073 5.0307 6.0938 7.4375s4.2308 4.7247 6.4688 6.9062c2.1097 2.0564 4.3151 3.9804 6.5938 5.75l16.562-93.438c-45.382-3.8738-58.389-74.083-93.531-72.938z" fill="url(#a)"/>
   </g>
   <g transform="matrix(.64279 .76604 -.76604 .64279 608.55 21.871)">
    <path d="m322.09 445.78c-3.6431-4.7194-7.1835-9.5186-10.656-14.125-1.8701-2.4806-3.7163-4.9144-5.5938-7.2188s-3.7942-4.4721-5.7188-6.5-3.8637-3.9115-5.875-5.5625-4.0809-3.0762-6.2188-4.25-4.3521-2.0914-6.6562-2.6875c-1.1521-0.29807-2.3301-0.5214-3.5312-0.65625s-2.4324-0.16591-3.6875-0.125c-1.2551 0.0409-2.5297 0.14578-3.8438 0.375s-2.6533 0.56992-4.0312 1-2.8032 0.95027-4.25 1.5938c-0.94838 0.42178-1.9265 0.98207-2.9062 1.5l11.594 129.06 32.312 15.156 19.062-107.56z" fill="url(#c)"/>
    <path d="m267.09 310.69c-1.2551 0.0409-2.5297 0.17703-3.8438 0.40625s-2.6533 0.56992-4.0312 1-2.8032 0.95027-4.25 1.5938c-1.3739 0.61102-2.7784 1.3418-4.2188 2.1562l8.375 93.281c0.97974-0.51793 1.9579-1.0782 2.9062-1.5 1.4468-0.64348 2.872-1.1637 4.25-1.5938s2.7172-0.77078 4.0312-1 2.5887-0.33409 3.8438-0.375c1.2551-0.0409 2.4864-0.01 3.6875 0.125 1.2011 0.13485 2.3792 0.35818 3.5312 0.65625 2.3042 0.59615 4.5184 1.5138 6.6562 2.6875s4.2074 2.599 6.2188 4.25 3.9505 3.5346 5.875 5.5625 3.8413 4.1956 5.7188 6.5 3.7237 4.7382 5.5938 7.2188c3.4728 4.6064 7.0131 9.4056 10.656 14.125l12.875-72.75c-2.2786-1.7696-4.4841-3.6936-6.5938-5.75-2.238-2.1815-4.3823-4.4994-6.4688-6.9062s-4.1192-4.9057-6.0938-7.4375c-3.9491-5.0635-7.6973-10.258-11.438-15.219-1.8701-2.4806-3.7476-4.9144-5.625-7.2188s-3.763-4.5034-5.6875-6.5312-3.8637-3.8802-5.875-5.5312-4.0809-3.0762-6.2188-4.25-4.3521-2.0914-6.6562-2.6875c-1.1521-0.29807-2.3301-0.5214-3.5312-0.65625s-2.4324-0.19716-3.6875-0.15625z" fill="url(#b)"/>
    <path d="m258 206.66c-5.0204 0.16365-10.48 1.7723-16.562 5.25l9.3125 103.94c1.4403-0.81446 2.8449-1.5452 4.2188-2.1562 1.4468-0.64348 2.872-1.1637 4.25-1.5938s2.7172-0.77078 4.0312-1 2.5887-0.36534 3.8438-0.40625c1.2551-0.0409 2.4864 0.0214 3.6875 0.15625s2.3792 0.35818 3.5312 0.65625c2.3042 0.59615 4.5184 1.5138 6.6562 2.6875s4.2074 2.599 6.2188 4.25 3.9505 3.5034 5.875 5.5312 3.8101 4.2269 5.6875 6.5312 3.7549 4.7382 5.625 7.2188c3.7402 4.9611 7.4884 10.155 11.438 15.219 1.9746 2.5318 4.0073 5.0307 6.0938 7.4375s4.2308 4.7247 6.4688 6.9062c2.1097 2.0564 4.3151 3.9804 6.5938 5.75l16.562-93.438c-45.382-3.8738-58.389-74.083-93.531-72.938z" fill="url(#a)"/>
   </g>
   <g transform="matrix(.5 .86603 -.86603 .5 714.98 88.527)">
    <path d="m322.09 445.78c-3.6431-4.7194-7.1835-9.5186-10.656-14.125-1.8701-2.4806-3.7163-4.9144-5.5938-7.2188s-3.7942-4.4721-5.7188-6.5-3.8637-3.9115-5.875-5.5625-4.0809-3.0762-6.2188-4.25-4.3521-2.0914-6.6562-2.6875c-1.1521-0.29807-2.3301-0.5214-3.5312-0.65625s-2.4324-0.16591-3.6875-0.125c-1.2551 0.0409-2.5297 0.14578-3.8438 0.375s-2.6533 0.56992-4.0312 1-2.8032 0.95027-4.25 1.5938c-0.94838 0.42178-1.9265 0.98207-2.9062 1.5l11.594 129.06 32.312 15.156 19.062-107.56z" fill="url(#c)"/>
    <path d="m267.09 310.69c-1.2551 0.0409-2.5297 0.17703-3.8438 0.40625s-2.6533 0.56992-4.0312 1-2.8032 0.95027-4.25 1.5938c-1.3739 0.61102-2.7784 1.3418-4.2188 2.1562l8.375 93.281c0.97974-0.51793 1.9579-1.0782 2.9062-1.5 1.4468-0.64348 2.872-1.1637 4.25-1.5938s2.7172-0.77078 4.0312-1 2.5887-0.33409 3.8438-0.375c1.2551-0.0409 2.4864-0.01 3.6875 0.125 1.2011 0.13485 2.3792 0.35818 3.5312 0.65625 2.3042 0.59615 4.5184 1.5138 6.6562 2.6875s4.2074 2.599 6.2188 4.25 3.9505 3.5346 5.875 5.5625 3.8413 4.1956 5.7188 6.5 3.7237 4.7382 5.5938 7.2188c3.4728 4.6064 7.0131 9.4056 10.656 14.125l12.875-72.75c-2.2786-1.7696-4.4841-3.6936-6.5938-5.75-2.238-2.1815-4.3823-4.4994-6.4688-6.9062s-4.1192-4.9057-6.0938-7.4375c-3.9491-5.0635-7.6973-10.258-11.438-15.219-1.8701-2.4806-3.7476-4.9144-5.625-7.2188s-3.763-4.5034-5.6875-6.5312-3.8637-3.8802-5.875-5.5312-4.0809-3.0762-6.2188-4.25-4.3521-2.0914-6.6562-2.6875c-1.1521-0.29807-2.3301-0.5214-3.5312-0.65625s-2.4324-0.19716-3.6875-0.15625z" fill="url(#b)"/>
    <path d="m258 206.66c-5.0204 0.16365-10.48 1.7723-16.562 5.25l9.3125 103.94c1.4403-0.81446 2.8449-1.5452 4.2188-2.1562 1.4468-0.64348 2.872-1.1637 4.25-1.5938s2.7172-0.77078 4.0312-1 2.5887-0.36534 3.8438-0.40625c1.2551-0.0409 2.4864 0.0214 3.6875 0.15625s2.3792 0.35818 3.5312 0.65625c2.3042 0.59615 4.5184 1.5138 6.6562 2.6875s4.2074 2.599 6.2188 4.25 3.9505 3.5034 5.875 5.5312 3.8101 4.2269 5.6875 6.5312 3.7549 4.7382 5.625 7.2188c3.7402 4.9611 7.4884 10.155 11.438 15.219 1.9746 2.5318 4.0073 5.0307 6.0938 7.4375s4.2308 4.7247 6.4688 6.9062c2.1097 2.0564 4.3151 3.9804 6.5938 5.75l16.562-93.438c-45.382-3.8738-58.389-74.083-93.531-72.938z" fill="url(#a)"/>
   </g>
   <g transform="matrix(.34202 .93969 -.93969 .34202 808.22 172.65)">
    <path d="m322.09 445.78c-3.6431-4.7194-7.1835-9.5186-10.656-14.125-1.8701-2.4806-3.7163-4.9144-5.5938-7.2188s-3.7942-4.4721-5.7188-6.5-3.8637-3.9115-5.875-5.5625-4.0809-3.0762-6.2188-4.25-4.3521-2.0914-6.6562-2.6875c-1.1521-0.29807-2.3301-0.5214-3.5312-0.65625s-2.4324-0.16591-3.6875-0.125c-1.2551 0.0409-2.5297 0.14578-3.8438 0.375s-2.6533 0.56992-4.0312 1-2.8032 0.95027-4.25 1.5938c-0.94838 0.42178-1.9265 0.98207-2.9062 1.5l11.594 129.06 32.312 15.156 19.062-107.56z" fill="url(#c)"/>
    <path d="m267.09 310.69c-1.2551 0.0409-2.5297 0.17703-3.8438 0.40625s-2.6533 0.56992-4.0312 1-2.8032 0.95027-4.25 1.5938c-1.3739 0.61102-2.7784 1.3418-4.2188 2.1562l8.375 93.281c0.97974-0.51793 1.9579-1.0782 2.9062-1.5 1.4468-0.64348 2.872-1.1637 4.25-1.5938s2.7172-0.77078 4.0312-1 2.5887-0.33409 3.8438-0.375c1.2551-0.0409 2.4864-0.01 3.6875 0.125 1.2011 0.13485 2.3792 0.35818 3.5312 0.65625 2.3042 0.59615 4.5184 1.5138 6.6562 2.6875s4.2074 2.599 6.2188 4.25 3.9505 3.5346 5.875 5.5625 3.8413 4.1956 5.7188 6.5 3.7237 4.7382 5.5938 7.2188c3.4728 4.6064 7.0131 9.4056 10.656 14.125l12.875-72.75c-2.2786-1.7696-4.4841-3.6936-6.5938-5.75-2.238-2.1815-4.3823-4.4994-6.4688-6.9062s-4.1192-4.9057-6.0938-7.4375c-3.9491-5.0635-7.6973-10.258-11.438-15.219-1.8701-2.4806-3.7476-4.9144-5.625-7.2188s-3.763-4.5034-5.6875-6.5312-3.8637-3.8802-5.875-5.5312-4.0809-3.0762-6.2188-4.25-4.3521-2.0914-6.6562-2.6875c-1.1521-0.29807-2.3301-0.5214-3.5312-0.65625s-2.4324-0.19716-3.6875-0.15625z" fill="url(#b)"/>
    <path d="m258 206.66c-5.0204 0.16365-10.48 1.7723-16.562 5.25l9.3125 103.94c1.4403-0.81446 2.8449-1.5452 4.2188-2.1562 1.4468-0.64348 2.872-1.1637 4.25-1.5938s2.7172-0.77078 4.0312-1 2.5887-0.36534 3.8438-0.40625c1.2551-0.0409 2.4864 0.0214 3.6875 0.15625s2.3792 0.35818 3.5312 0.65625c2.3042 0.59615 4.5184 1.5138 6.6562 2.6875s4.2074 2.599 6.2188 4.25 3.9505 3.5034 5.875 5.5312 3.8101 4.2269 5.6875 6.5312 3.7549 4.7382 5.625 7.2188c3.7402 4.9611 7.4884 10.155 11.438 15.219 1.9746 2.5318 4.0073 5.0307 6.0938 7.4375s4.2308 4.7247 6.4688 6.9062c2.1097 2.0564 4.3151 3.9804 6.5938 5.75l16.562-93.438c-45.382-3.8738-58.389-74.083-93.531-72.938z" fill="url(#a)"/>
   </g>
   <g transform="matrix(.17365 .98481 -.98481 .17365 885.43 271.69)">
    <path d="m322.09 445.78c-3.6431-4.7194-7.1835-9.5186-10.656-14.125-1.8701-2.4806-3.7163-4.9144-5.5938-7.2188s-3.7942-4.4721-5.7188-6.5-3.8637-3.9115-5.875-5.5625-4.0809-3.0762-6.2188-4.25-4.3521-2.0914-6.6562-2.6875c-1.1521-0.29807-2.3301-0.5214-3.5312-0.65625s-2.4324-0.16591-3.6875-0.125c-1.2551 0.0409-2.5297 0.14578-3.8438 0.375s-2.6533 0.56992-4.0312 1-2.8032 0.95027-4.25 1.5938c-0.94838 0.42178-1.9265 0.98207-2.9062 1.5l11.594 129.06 32.312 15.156 19.062-107.56z" fill="url(#c)"/>
    <path d="m267.09 310.69c-1.2551 0.0409-2.5297 0.17703-3.8438 0.40625s-2.6533 0.56992-4.0312 1-2.8032 0.95027-4.25 1.5938c-1.3739 0.61102-2.7784 1.3418-4.2188 2.1562l8.375 93.281c0.97974-0.51793 1.9579-1.0782 2.9062-1.5 1.4468-0.64348 2.872-1.1637 4.25-1.5938s2.7172-0.77078 4.0312-1 2.5887-0.33409 3.8438-0.375c1.2551-0.0409 2.4864-0.01 3.6875 0.125 1.2011 0.13485 2.3792 0.35818 3.5312 0.65625 2.3042 0.59615 4.5184 1.5138 6.6562 2.6875s4.2074 2.599 6.2188 4.25 3.9505 3.5346 5.875 5.5625 3.8413 4.1956 5.7188 6.5 3.7237 4.7382 5.5938 7.2188c3.4728 4.6064 7.0131 9.4056 10.656 14.125l12.875-72.75c-2.2786-1.7696-4.4841-3.6936-6.5938-5.75-2.238-2.1815-4.3823-4.4994-6.4688-6.9062s-4.1192-4.9057-6.0938-7.4375c-3.9491-5.0635-7.6973-10.258-11.438-15.219-1.8701-2.4806-3.7476-4.9144-5.625-7.2188s-3.763-4.5034-5.6875-6.5312-3.8637-3.8802-5.875-5.5312-4.0809-3.0762-6.2188-4.25-4.3521-2.0914-6.6562-2.6875c-1.1521-0.29807-2.3301-0.5214-3.5312-0.65625s-2.4324-0.19716-3.6875-0.15625z" fill="url(#b)"/>
    <path d="m258 206.66c-5.0204 0.16365-10.48 1.7723-16.562 5.25l9.3125 103.94c1.4403-0.81446 2.8449-1.5452 4.2188-2.1562 1.4468-0.64348 2.872-1.1637 4.25-1.5938s2.7172-0.77078 4.0312-1 2.5887-0.36534 3.8438-0.40625c1.2551-0.0409 2.4864 0.0214 3.6875 0.15625s2.3792 0.35818 3.5312 0.65625c2.3042 0.59615 4.5184 1.5138 6.6562 2.6875s4.2074 2.599 6.2188 4.25 3.9505 3.5034 5.875 5.5312 3.8101 4.2269 5.6875 6.5312 3.7549 4.7382 5.625 7.2188c3.7402 4.9611 7.4884 10.155 11.438 15.219 1.9746 2.5318 4.0073 5.0307 6.0938 7.4375s4.2308 4.7247 6.4688 6.9062c2.1097 2.0564 4.3151 3.9804 6.5938 5.75l16.562-93.438c-45.382-3.8738-58.389-74.083-93.531-72.938z" fill="url(#a)"/>
   </g>
   <g transform="matrix(0 1 -1 0 944.28 382.63)">
    <path d="m322.09 445.78c-3.6431-4.7194-7.1835-9.5186-10.656-14.125-1.8701-2.4806-3.7163-4.9144-5.5938-7.2188s-3.7942-4.4721-5.7188-6.5-3.8637-3.9115-5.875-5.5625-4.0809-3.0762-6.2188-4.25-4.3521-2.0914-6.6562-2.6875c-1.1521-0.29807-2.3301-0.5214-3.5312-0.65625s-2.4324-0.16591-3.6875-0.125c-1.2551 0.0409-2.5297 0.14578-3.8438 0.375s-2.6533 0.56992-4.0312 1-2.8032 0.95027-4.25 1.5938c-0.94838 0.42178-1.9265 0.98207-2.9062 1.5l11.594 129.06 32.312 15.156 19.062-107.56z" fill="url(#c)"/>
    <path d="m267.09 310.69c-1.2551 0.0409-2.5297 0.17703-3.8438 0.40625s-2.6533 0.56992-4.0312 1-2.8032 0.95027-4.25 1.5938c-1.3739 0.61102-2.7784 1.3418-4.2188 2.1562l8.375 93.281c0.97974-0.51793 1.9579-1.0782 2.9062-1.5 1.4468-0.64348 2.872-1.1637 4.25-1.5938s2.7172-0.77078 4.0312-1 2.5887-0.33409 3.8438-0.375c1.2551-0.0409 2.4864-0.01 3.6875 0.125 1.2011 0.13485 2.3792 0.35818 3.5312 0.65625 2.3042 0.59615 4.5184 1.5138 6.6562 2.6875s4.2074 2.599 6.2188 4.25 3.9505 3.5346 5.875 5.5625 3.8413 4.1956 5.7188 6.5 3.7237 4.7382 5.5938 7.2188c3.4728 4.6064 7.0131 9.4056 10.656 14.125l12.875-72.75c-2.2786-1.7696-4.4841-3.6936-6.5938-5.75-2.238-2.1815-4.3823-4.4994-6.4688-6.9062s-4.1192-4.9057-6.0938-7.4375c-3.9491-5.0635-7.6973-10.258-11.438-15.219-1.8701-2.4806-3.7476-4.9144-5.625-7.2188s-3.763-4.5034-5.6875-6.5312-3.8637-3.8802-5.875-5.5312-4.0809-3.0762-6.2188-4.25-4.3521-2.0914-6.6562-2.6875c-1.1521-0.29807-2.3301-0.5214-3.5312-0.65625s-2.4324-0.19716-3.6875-0.15625z" fill="url(#b)"/>
    <path d="m258 206.66c-5.0204 0.16365-10.48 1.7723-16.562 5.25l9.3125 103.94c1.4403-0.81446 2.8449-1.5452 4.2188-2.1562 1.4468-0.64348 2.872-1.1637 4.25-1.5938s2.7172-0.77078 4.0312-1 2.5887-0.36534 3.8438-0.40625c1.2551-0.0409 2.4864 0.0214 3.6875 0.15625s2.3792 0.35818 3.5312 0.65625c2.3042 0.59615 4.5184 1.5138 6.6562 2.6875s4.2074 2.599 6.2188 4.25 3.9505 3.5034 5.875 5.5312 3.8101 4.2269 5.6875 6.5312 3.7549 4.7382 5.625 7.2188c3.7402 4.9611 7.4884 10.155 11.438 15.219 1.9746 2.5318 4.0073 5.0307 6.0938 7.4375s4.2308 4.7247 6.4688 6.9062c2.1097 2.0564 4.3151 3.9804 6.5938 5.75l16.562-93.438c-45.382-3.8738-58.389-74.083-93.531-72.938z" fill="url(#a)"/>
   </g>
   <g transform="matrix(-.17365 .98481 -.98481 -.17365 982.96 502.1)">
    <path d="m322.09 445.78c-3.6431-4.7194-7.1835-9.5186-10.656-14.125-1.8701-2.4806-3.7163-4.9144-5.5938-7.2188s-3.7942-4.4721-5.7188-6.5-3.8637-3.9115-5.875-5.5625-4.0809-3.0762-6.2188-4.25-4.3521-2.0914-6.6562-2.6875c-1.1521-0.29807-2.3301-0.5214-3.5312-0.65625s-2.4324-0.16591-3.6875-0.125c-1.2551 0.0409-2.5297 0.14578-3.8438 0.375s-2.6533 0.56992-4.0312 1-2.8032 0.95027-4.25 1.5938c-0.94838 0.42178-1.9265 0.98207-2.9062 1.5l11.594 129.06 32.312 15.156 19.062-107.56z" fill="url(#c)"/>
    <path d="m267.09 310.69c-1.2551 0.0409-2.5297 0.17703-3.8438 0.40625s-2.6533 0.56992-4.0312 1-2.8032 0.95027-4.25 1.5938c-1.3739 0.61102-2.7784 1.3418-4.2188 2.1562l8.375 93.281c0.97974-0.51793 1.9579-1.0782 2.9062-1.5 1.4468-0.64348 2.872-1.1637 4.25-1.5938s2.7172-0.77078 4.0312-1 2.5887-0.33409 3.8438-0.375c1.2551-0.0409 2.4864-0.01 3.6875 0.125 1.2011 0.13485 2.3792 0.35818 3.5312 0.65625 2.3042 0.59615 4.5184 1.5138 6.6562 2.6875s4.2074 2.599 6.2188 4.25 3.9505 3.5346 5.875 5.5625 3.8413 4.1956 5.7188 6.5 3.7237 4.7382 5.5938 7.2188c3.4728 4.6064 7.0131 9.4056 10.656 14.125l12.875-72.75c-2.2786-1.7696-4.4841-3.6936-6.5938-5.75-2.238-2.1815-4.3823-4.4994-6.4688-6.9062s-4.1192-4.9057-6.0938-7.4375c-3.9491-5.0635-7.6973-10.258-11.438-15.219-1.8701-2.4806-3.7476-4.9144-5.625-7.2188s-3.763-4.5034-5.6875-6.5312-3.8637-3.8802-5.875-5.5312-4.0809-3.0762-6.2188-4.25-4.3521-2.0914-6.6562-2.6875c-1.1521-0.29807-2.3301-0.5214-3.5312-0.65625s-2.4324-0.19716-3.6875-0.15625z" fill="url(#b)"/>
    <path d="m258 206.66c-5.0204 0.16365-10.48 1.7723-16.562 5.25l9.3125 103.94c1.4403-0.81446 2.8449-1.5452 4.2188-2.1562 1.4468-0.64348 2.872-1.1637 4.25-1.5938s2.7172-0.77078 4.0312-1 2.5887-0.36534 3.8438-0.40625c1.2551-0.0409 2.4864 0.0214 3.6875 0.15625s2.3792 0.35818 3.5312 0.65625c2.3042 0.59615 4.5184 1.5138 6.6562 2.6875s4.2074 2.599 6.2188 4.25 3.9505 3.5034 5.875 5.5312 3.8101 4.2269 5.6875 6.5312 3.7549 4.7382 5.625 7.2188c3.7402 4.9611 7.4884 10.155 11.438 15.219 1.9746 2.5318 4.0073 5.0307 6.0938 7.4375s4.2308 4.7247 6.4688 6.9062c2.1097 2.0564 4.3151 3.9804 6.5938 5.75l16.562-93.438c-45.382-3.8738-58.389-74.083-93.531-72.938z" fill="url(#a)"/>
   </g>
   <g transform="matrix(-.34202 .93969 -.93969 -.34202 1000.3 626.48)">
    <path d="m322.09 445.78c-3.6431-4.7194-7.1835-9.5186-10.656-14.125-1.8701-2.4806-3.7163-4.9144-5.5938-7.2188s-3.7942-4.4721-5.7188-6.5-3.8637-3.9115-5.875-5.5625-4.0809-3.0762-6.2188-4.25-4.3521-2.0914-6.6562-2.6875c-1.1521-0.29807-2.3301-0.5214-3.5312-0.65625s-2.4324-0.16591-3.6875-0.125c-1.2551 0.0409-2.5297 0.14578-3.8438 0.375s-2.6533 0.56992-4.0312 1-2.8032 0.95027-4.25 1.5938c-0.94838 0.42178-1.9265 0.98207-2.9062 1.5l11.594 129.06 32.312 15.156 19.062-107.56z" fill="url(#c)"/>
    <path d="m267.09 310.69c-1.2551 0.0409-2.5297 0.17703-3.8438 0.40625s-2.6533 0.56992-4.0312 1-2.8032 0.95027-4.25 1.5938c-1.3739 0.61102-2.7784 1.3418-4.2188 2.1562l8.375 93.281c0.97974-0.51793 1.9579-1.0782 2.9062-1.5 1.4468-0.64348 2.872-1.1637 4.25-1.5938s2.7172-0.77078 4.0312-1 2.5887-0.33409 3.8438-0.375c1.2551-0.0409 2.4864-0.01 3.6875 0.125 1.2011 0.13485 2.3792 0.35818 3.5312 0.65625 2.3042 0.59615 4.5184 1.5138 6.6562 2.6875s4.2074 2.599 6.2188 4.25 3.9505 3.5346 5.875 5.5625 3.8413 4.1956 5.7188 6.5 3.7237 4.7382 5.5938 7.2188c3.4728 4.6064 7.0131 9.4056 10.656 14.125l12.875-72.75c-2.2786-1.7696-4.4841-3.6936-6.5938-5.75-2.238-2.1815-4.3823-4.4994-6.4688-6.9062s-4.1192-4.9057-6.0938-7.4375c-3.9491-5.0635-7.6973-10.258-11.438-15.219-1.8701-2.4806-3.7476-4.9144-5.625-7.2188s-3.763-4.5034-5.6875-6.5312-3.8637-3.8802-5.875-5.5312-4.0809-3.0762-6.2188-4.25-4.3521-2.0914-6.6562-2.6875c-1.1521-0.29807-2.3301-0.5214-3.5312-0.65625s-2.4324-0.19716-3.6875-0.15625z" fill="url(#b)"/>
    <path d="m258 206.66c-5.0204 0.16365-10.48 1.7723-16.562 5.25l9.3125 103.94c1.4403-0.81446 2.8449-1.5452 4.2188-2.1562 1.4468-0.64348 2.872-1.1637 4.25-1.5938s2.7172-0.77078 4.0312-1 2.5887-0.36534 3.8438-0.40625c1.2551-0.0409 2.4864 0.0214 3.6875 0.15625s2.3792 0.35818 3.5312 0.65625c2.3042 0.59615 4.5184 1.5138 6.6562 2.6875s4.2074 2.599 6.2188 4.25 3.9505 3.5034 5.875 5.5312 3.8101 4.2269 5.6875 6.5312 3.7549 4.7382 5.625 7.2188c3.7402 4.9611 7.4884 10.155 11.438 15.219 1.9746 2.5318 4.0073 5.0307 6.0938 7.4375s4.2308 4.7247 6.4688 6.9062c2.1097 2.0564 4.3151 3.9804 6.5938 5.75l16.562-93.438c-45.382-3.8738-58.389-74.083-93.531-72.938z" fill="url(#a)"/>
   </g>
   <g transform="matrix(-.5 .86603 -.86603 -.5 995.8 751.98)">
    <path d="m322.09 445.78c-3.6431-4.7194-7.1835-9.5186-10.656-14.125-1.8701-2.4806-3.7163-4.9144-5.5938-7.2188s-3.7942-4.4721-5.7188-6.5-3.8637-3.9115-5.875-5.5625-4.0809-3.0762-6.2188-4.25-4.3521-2.0914-6.6562-2.6875c-1.1521-0.29807-2.3301-0.5214-3.5312-0.65625s-2.4324-0.16591-3.6875-0.125c-1.2551 0.0409-2.5297 0.14578-3.8438 0.375s-2.6533 0.56992-4.0312 1-2.8032 0.95027-4.25 1.5938c-0.94838 0.42178-1.9265 0.98207-2.9062 1.5l11.594 129.06 32.312 15.156 19.062-107.56z" fill="url(#c)"/>
    <path d="m267.09 310.69c-1.2551 0.0409-2.5297 0.17703-3.8438 0.40625s-2.6533 0.56992-4.0312 1-2.8032 0.95027-4.25 1.5938c-1.3739 0.61102-2.7784 1.3418-4.2188 2.1562l8.375 93.281c0.97974-0.51793 1.9579-1.0782 2.9062-1.5 1.4468-0.64348 2.872-1.1637 4.25-1.5938s2.7172-0.77078 4.0312-1 2.5887-0.33409 3.8438-0.375c1.2551-0.0409 2.4864-0.01 3.6875 0.125 1.2011 0.13485 2.3792 0.35818 3.5312 0.65625 2.3042 0.59615 4.5184 1.5138 6.6562 2.6875s4.2074 2.599 6.2188 4.25 3.9505 3.5346 5.875 5.5625 3.8413 4.1956 5.7188 6.5 3.7237 4.7382 5.5938 7.2188c3.4728 4.6064 7.0131 9.4056 10.656 14.125l12.875-72.75c-2.2786-1.7696-4.4841-3.6936-6.5938-5.75-2.238-2.1815-4.3823-4.4994-6.4688-6.9062s-4.1192-4.9057-6.0938-7.4375c-3.9491-5.0635-7.6973-10.258-11.438-15.219-1.8701-2.4806-3.7476-4.9144-5.625-7.2188s-3.763-4.5034-5.6875-6.5312-3.8637-3.8802-5.875-5.5312-4.0809-3.0762-6.2188-4.25-4.3521-2.0914-6.6562-2.6875c-1.1521-0.29807-2.3301-0.5214-3.5312-0.65625s-2.4324-0.19716-3.6875-0.15625z" fill="url(#b)"/>
    <path d="m258 206.66c-5.0204 0.16365-10.48 1.7723-16.562 5.25l9.3125 103.94c1.4403-0.81446 2.8449-1.5452 4.2188-2.1562 1.4468-0.64348 2.872-1.1637 4.25-1.5938s2.7172-0.77078 4.0312-1 2.5887-0.36534 3.8438-0.40625c1.2551-0.0409 2.4864 0.0214 3.6875 0.15625s2.3792 0.35818 3.5312 0.65625c2.3042 0.59615 4.5184 1.5138 6.6562 2.6875s4.2074 2.599 6.2188 4.25 3.9505 3.5034 5.875 5.5312 3.8101 4.2269 5.6875 6.5312 3.7549 4.7382 5.625 7.2188c3.7402 4.9611 7.4884 10.155 11.438 15.219 1.9746 2.5318 4.0073 5.0307 6.0938 7.4375s4.2308 4.7247 6.4688 6.9062c2.1097 2.0564 4.3151 3.9804 6.5938 5.75l16.562-93.438c-45.382-3.8738-58.389-74.083-93.531-72.938z" fill="url(#a)"/>
   </g>
   <g transform="matrix(-.64279 .76604 -.76604 -.64279 969.57 874.79)">
    <path d="m322.09 445.78c-3.6431-4.7194-7.1835-9.5186-10.656-14.125-1.8701-2.4806-3.7163-4.9144-5.5938-7.2188s-3.7942-4.4721-5.7188-6.5-3.8637-3.9115-5.875-5.5625-4.0809-3.0762-6.2188-4.25-4.3521-2.0914-6.6562-2.6875c-1.1521-0.29807-2.3301-0.5214-3.5312-0.65625s-2.4324-0.16591-3.6875-0.125c-1.2551 0.0409-2.5297 0.14578-3.8438 0.375s-2.6533 0.56992-4.0312 1-2.8032 0.95027-4.25 1.5938c-0.94838 0.42178-1.9265 0.98207-2.9062 1.5l11.594 129.06 32.312 15.156 19.062-107.56z" fill="url(#c)"/>
    <path d="m267.09 310.69c-1.2551 0.0409-2.5297 0.17703-3.8438 0.40625s-2.6533 0.56992-4.0312 1-2.8032 0.95027-4.25 1.5938c-1.3739 0.61102-2.7784 1.3418-4.2188 2.1562l8.375 93.281c0.97974-0.51793 1.9579-1.0782 2.9062-1.5 1.4468-0.64348 2.872-1.1637 4.25-1.5938s2.7172-0.77078 4.0312-1 2.5887-0.33409 3.8438-0.375c1.2551-0.0409 2.4864-0.01 3.6875 0.125 1.2011 0.13485 2.3792 0.35818 3.5312 0.65625 2.3042 0.59615 4.5184 1.5138 6.6562 2.6875s4.2074 2.599 6.2188 4.25 3.9505 3.5346 5.875 5.5625 3.8413 4.1956 5.7188 6.5 3.7237 4.7382 5.5938 7.2188c3.4728 4.6064 7.0131 9.4056 10.656 14.125l12.875-72.75c-2.2786-1.7696-4.4841-3.6936-6.5938-5.75-2.238-2.1815-4.3823-4.4994-6.4688-6.9062s-4.1192-4.9057-6.0938-7.4375c-3.9491-5.0635-7.6973-10.258-11.438-15.219-1.8701-2.4806-3.7476-4.9144-5.625-7.2188s-3.763-4.5034-5.6875-6.5312-3.8637-3.8802-5.875-5.5312-4.0809-3.0762-6.2188-4.25-4.3521-2.0914-6.6562-2.6875c-1.1521-0.29807-2.3301-0.5214-3.5312-0.65625s-2.4324-0.19716-3.6875-0.15625z" fill="url(#b)"/>
    <path d="m258 206.66c-5.0204 0.16365-10.48 1.7723-16.562 5.25l9.3125 103.94c1.4403-0.81446 2.8449-1.5452 4.2188-2.1562 1.4468-0.64348 2.872-1.1637 4.25-1.5938s2.7172-0.77078 4.0312-1 2.5887-0.36534 3.8438-0.40625c1.2551-0.0409 2.4864 0.0214 3.6875 0.15625s2.3792 0.35818 3.5312 0.65625c2.3042 0.59615 4.5184 1.5138 6.6562 2.6875s4.2074 2.599 6.2188 4.25 3.9505 3.5034 5.875 5.5312 3.8101 4.2269 5.6875 6.5312 3.7549 4.7382 5.625 7.2188c3.7402 4.9611 7.4884 10.155 11.438 15.219 1.9746 2.5318 4.0073 5.0307 6.0938 7.4375s4.2308 4.7247 6.4688 6.9062c2.1097 2.0564 4.3151 3.9804 6.5938 5.75l16.562-93.438c-45.382-3.8738-58.389-74.083-93.531-72.938z" fill="url(#a)"/>
   </g>
   <g transform="matrix(-.76604 .64279 -.64279 -.76604 922.4 991.18)">
    <path d="m322.09 445.78c-3.6431-4.7194-7.1835-9.5186-10.656-14.125-1.8701-2.4806-3.7163-4.9144-5.5938-7.2188s-3.7942-4.4721-5.7188-6.5-3.8637-3.9115-5.875-5.5625-4.0809-3.0762-6.2188-4.25-4.3521-2.0914-6.6562-2.6875c-1.1521-0.29807-2.3301-0.5214-3.5312-0.65625s-2.4324-0.16591-3.6875-0.125c-1.2551 0.0409-2.5297 0.14578-3.8438 0.375s-2.6533 0.56992-4.0312 1-2.8032 0.95027-4.25 1.5938c-0.94838 0.42178-1.9265 0.98207-2.9062 1.5l11.594 129.06 32.312 15.156 19.062-107.56z" fill="url(#c)"/>
    <path d="m267.09 310.69c-1.2551 0.0409-2.5297 0.17703-3.8438 0.40625s-2.6533 0.56992-4.0312 1-2.8032 0.95027-4.25 1.5938c-1.3739 0.61102-2.7784 1.3418-4.2188 2.1562l8.375 93.281c0.97974-0.51793 1.9579-1.0782 2.9062-1.5 1.4468-0.64348 2.872-1.1637 4.25-1.5938s2.7172-0.77078 4.0312-1 2.5887-0.33409 3.8438-0.375c1.2551-0.0409 2.4864-0.01 3.6875 0.125 1.2011 0.13485 2.3792 0.35818 3.5312 0.65625 2.3042 0.59615 4.5184 1.5138 6.6562 2.6875s4.2074 2.599 6.2188 4.25 3.9505 3.5346 5.875 5.5625 3.8413 4.1956 5.7188 6.5 3.7237 4.7382 5.5938 7.2188c3.4728 4.6064 7.0131 9.4056 10.656 14.125l12.875-72.75c-2.2786-1.7696-4.4841-3.6936-6.5938-5.75-2.238-2.1815-4.3823-4.4994-6.4688-6.9062s-4.1192-4.9057-6.0938-7.4375c-3.9491-5.0635-7.6973-10.258-11.438-15.219-1.8701-2.4806-3.7476-4.9144-5.625-7.2188s-3.763-4.5034-5.6875-6.5312-3.8637-3.8802-5.875-5.5312-4.0809-3.0762-6.2188-4.25-4.3521-2.0914-6.6562-2.6875c-1.1521-0.29807-2.3301-0.5214-3.5312-0.65625s-2.4324-0.19716-3.6875-0.15625z" fill="url(#b)"/>
    <path d="m258 206.66c-5.0204 0.16365-10.48 1.7723-16.562 5.25l9.3125 103.94c1.4403-0.81446 2.8449-1.5452 4.2188-2.1562 1.4468-0.64348 2.872-1.1637 4.25-1.5938s2.7172-0.77078 4.0312-1 2.5887-0.36534 3.8438-0.40625c1.2551-0.0409 2.4864 0.0214 3.6875 0.15625s2.3792 0.35818 3.5312 0.65625c2.3042 0.59615 4.5184 1.5138 6.6562 2.6875s4.2074 2.599 6.2188 4.25 3.9505 3.5034 5.875 5.5312 3.8101 4.2269 5.6875 6.5312 3.7549 4.7382 5.625 7.2188c3.7402 4.9611 7.4884 10.155 11.438 15.219 1.9746 2.5318 4.0073 5.0307 6.0938 7.4375s4.2308 4.7247 6.4688 6.9062c2.1097 2.0564 4.3151 3.9804 6.5938 5.75l16.562-93.438c-45.382-3.8738-58.389-74.083-93.531-72.938z" fill="url(#a)"/>
   </g>
   <g transform="matrix(-.86603 .5 -.5 -.86603 855.75 1097.6)">
    <path d="m322.09 445.78c-3.6431-4.7194-7.1835-9.5186-10.656-14.125-1.8701-2.4806-3.7163-4.9144-5.5938-7.2188s-3.7942-4.4721-5.7188-6.5-3.8637-3.9115-5.875-5.5625-4.0809-3.0762-6.2188-4.25-4.3521-2.0914-6.6562-2.6875c-1.1521-0.29807-2.3301-0.5214-3.5312-0.65625s-2.4324-0.16591-3.6875-0.125c-1.2551 0.0409-2.5297 0.14578-3.8438 0.375s-2.6533 0.56992-4.0312 1-2.8032 0.95027-4.25 1.5938c-0.94838 0.42178-1.9265 0.98207-2.9062 1.5l11.594 129.06 32.312 15.156 19.062-107.56z" fill="url(#c)"/>
    <path d="m267.09 310.69c-1.2551 0.0409-2.5297 0.17703-3.8438 0.40625s-2.6533 0.56992-4.0312 1-2.8032 0.95027-4.25 1.5938c-1.3739 0.61102-2.7784 1.3418-4.2188 2.1562l8.375 93.281c0.97974-0.51793 1.9579-1.0782 2.9062-1.5 1.4468-0.64348 2.872-1.1637 4.25-1.5938s2.7172-0.77078 4.0312-1 2.5887-0.33409 3.8438-0.375c1.2551-0.0409 2.4864-0.01 3.6875 0.125 1.2011 0.13485 2.3792 0.35818 3.5312 0.65625 2.3042 0.59615 4.5184 1.5138 6.6562 2.6875s4.2074 2.599 6.2188 4.25 3.9505 3.5346 5.875 5.5625 3.8413 4.1956 5.7188 6.5 3.7237 4.7382 5.5938 7.2188c3.4728 4.6064 7.0131 9.4056 10.656 14.125l12.875-72.75c-2.2786-1.7696-4.4841-3.6936-6.5938-5.75-2.238-2.1815-4.3823-4.4994-6.4688-6.9062s-4.1192-4.9057-6.0938-7.4375c-3.9491-5.0635-7.6973-10.258-11.438-15.219-1.8701-2.4806-3.7476-4.9144-5.625-7.2188s-3.763-4.5034-5.6875-6.5312-3.8637-3.8802-5.875-5.5312-4.0809-3.0762-6.2188-4.25-4.3521-2.0914-6.6562-2.6875c-1.1521-0.29807-2.3301-0.5214-3.5312-0.65625s-2.4324-0.19716-3.6875-0.15625z" fill="url(#b)"/>
    <path d="m258 206.66c-5.0204 0.16365-10.48 1.7723-16.562 5.25l9.3125 103.94c1.4403-0.81446 2.8449-1.5452 4.2188-2.1562 1.4468-0.64348 2.872-1.1637 4.25-1.5938s2.7172-0.77078 4.0312-1 2.5887-0.36534 3.8438-0.40625c1.2551-0.0409 2.4864 0.0214 3.6875 0.15625s2.3792 0.35818 3.5312 0.65625c2.3042 0.59615 4.5184 1.5138 6.6562 2.6875s4.2074 2.599 6.2188 4.25 3.9505 3.5034 5.875 5.5312 3.8101 4.2269 5.6875 6.5312 3.7549 4.7382 5.625 7.2188c3.7402 4.9611 7.4884 10.155 11.438 15.219 1.9746 2.5318 4.0073 5.0307 6.0938 7.4375s4.2308 4.7247 6.4688 6.9062c2.1097 2.0564 4.3151 3.9804 6.5938 5.75l16.562-93.438c-45.382-3.8738-58.389-74.083-93.531-72.938z" fill="url(#a)"/>
   </g>
   <g transform="matrix(-.93969 .34202 -.34202 -.93969 771.62 1190.8)">
    <path d="m322.09 445.78c-3.6431-4.7194-7.1835-9.5186-10.656-14.125-1.8701-2.4806-3.7163-4.9144-5.5938-7.2188s-3.7942-4.4721-5.7188-6.5-3.8637-3.9115-5.875-5.5625-4.0809-3.0762-6.2188-4.25-4.3521-2.0914-6.6562-2.6875c-1.1521-0.29807-2.3301-0.5214-3.5312-0.65625s-2.4324-0.16591-3.6875-0.125c-1.2551 0.0409-2.5297 0.14578-3.8438 0.375s-2.6533 0.56992-4.0312 1-2.8032 0.95027-4.25 1.5938c-0.94838 0.42178-1.9265 0.98207-2.9062 1.5l11.594 129.06 32.312 15.156 19.062-107.56z" fill="url(#c)"/>
    <path d="m267.09 310.69c-1.2551 0.0409-2.5297 0.17703-3.8438 0.40625s-2.6533 0.56992-4.0312 1-2.8032 0.95027-4.25 1.5938c-1.3739 0.61102-2.7784 1.3418-4.2188 2.1562l8.375 93.281c0.97974-0.51793 1.9579-1.0782 2.9062-1.5 1.4468-0.64348 2.872-1.1637 4.25-1.5938s2.7172-0.77078 4.0312-1 2.5887-0.33409 3.8438-0.375c1.2551-0.0409 2.4864-0.01 3.6875 0.125 1.2011 0.13485 2.3792 0.35818 3.5312 0.65625 2.3042 0.59615 4.5184 1.5138 6.6562 2.6875s4.2074 2.599 6.2188 4.25 3.9505 3.5346 5.875 5.5625 3.8413 4.1956 5.7188 6.5 3.7237 4.7382 5.5938 7.2188c3.4728 4.6064 7.0131 9.4056 10.656 14.125l12.875-72.75c-2.2786-1.7696-4.4841-3.6936-6.5938-5.75-2.238-2.1815-4.3823-4.4994-6.4688-6.9062s-4.1192-4.9057-6.0938-7.4375c-3.9491-5.0635-7.6973-10.258-11.438-15.219-1.8701-2.4806-3.7476-4.9144-5.625-7.2188s-3.763-4.5034-5.6875-6.5312-3.8637-3.8802-5.875-5.5312-4.0809-3.0762-6.2188-4.25-4.3521-2.0914-6.6562-2.6875c-1.1521-0.29807-2.3301-0.5214-3.5312-0.65625s-2.4324-0.19716-3.6875-0.15625z" fill="url(#b)"/>
    <path d="m258 206.66c-5.0204 0.16365-10.48 1.7723-16.562 5.25l9.3125 103.94c1.4403-0.81446 2.8449-1.5452 4.2188-2.1562 1.4468-0.64348 2.872-1.1637 4.25-1.5938s2.7172-0.77078 4.0312-1 2.5887-0.36534 3.8438-0.40625c1.2551-0.0409 2.4864 0.0214 3.6875 0.15625s2.3792 0.35818 3.5312 0.65625c2.3042 0.59615 4.5184 1.5138 6.6562 2.6875s4.2074 2.599 6.2188 4.25 3.9505 3.5034 5.875 5.5312 3.8101 4.2269 5.6875 6.5312 3.7549 4.7382 5.625 7.2188c3.7402 4.9611 7.4884 10.155 11.438 15.219 1.9746 2.5318 4.0073 5.0307 6.0938 7.4375s4.2308 4.7247 6.4688 6.9062c2.1097 2.0564 4.3151 3.9804 6.5938 5.75l16.562-93.438c-45.382-3.8738-58.389-74.083-93.531-72.938z" fill="url(#a)"/>
   </g>
   <g transform="matrix(-.98481 .17365 -.17365 -.98481 672.59 1268.1)">
    <path d="m322.09 445.78c-3.6431-4.7194-7.1835-9.5186-10.656-14.125-1.8701-2.4806-3.7163-4.9144-5.5938-7.2188s-3.7942-4.4721-5.7188-6.5-3.8637-3.9115-5.875-5.5625-4.0809-3.0762-6.2188-4.25-4.3521-2.0914-6.6562-2.6875c-1.1521-0.29807-2.3301-0.5214-3.5312-0.65625s-2.4324-0.16591-3.6875-0.125c-1.2551 0.0409-2.5297 0.14578-3.8438 0.375s-2.6533 0.56992-4.0312 1-2.8032 0.95027-4.25 1.5938c-0.94838 0.42178-1.9265 0.98207-2.9062 1.5l11.594 129.06 32.312 15.156 19.062-107.56z" fill="url(#c)"/>
    <path d="m267.09 310.69c-1.2551 0.0409-2.5297 0.17703-3.8438 0.40625s-2.6533 0.56992-4.0312 1-2.8032 0.95027-4.25 1.5938c-1.3739 0.61102-2.7784 1.3418-4.2188 2.1562l8.375 93.281c0.97974-0.51793 1.9579-1.0782 2.9062-1.5 1.4468-0.64348 2.872-1.1637 4.25-1.5938s2.7172-0.77078 4.0312-1 2.5887-0.33409 3.8438-0.375c1.2551-0.0409 2.4864-0.01 3.6875 0.125 1.2011 0.13485 2.3792 0.35818 3.5312 0.65625 2.3042 0.59615 4.5184 1.5138 6.6562 2.6875s4.2074 2.599 6.2188 4.25 3.9505 3.5346 5.875 5.5625 3.8413 4.1956 5.7188 6.5 3.7237 4.7382 5.5938 7.2188c3.4728 4.6064 7.0131 9.4056 10.656 14.125l12.875-72.75c-2.2786-1.7696-4.4841-3.6936-6.5938-5.75-2.238-2.1815-4.3823-4.4994-6.4688-6.9062s-4.1192-4.9057-6.0938-7.4375c-3.9491-5.0635-7.6973-10.258-11.438-15.219-1.8701-2.4806-3.7476-4.9144-5.625-7.2188s-3.763-4.5034-5.6875-6.5312-3.8637-3.8802-5.875-5.5312-4.0809-3.0762-6.2188-4.25-4.3521-2.0914-6.6562-2.6875c-1.1521-0.29807-2.3301-0.5214-3.5312-0.65625s-2.4324-0.19716-3.6875-0.15625z" fill="url(#b)"/>
    <path d="m258 206.66c-5.0204 0.16365-10.48 1.7723-16.562 5.25l9.3125 103.94c1.4403-0.81446 2.8449-1.5452 4.2188-2.1562 1.4468-0.64348 2.872-1.1637 4.25-1.5938s2.7172-0.77078 4.0312-1 2.5887-0.36534 3.8438-0.40625c1.2551-0.0409 2.4864 0.0214 3.6875 0.15625s2.3792 0.35818 3.5312 0.65625c2.3042 0.59615 4.5184 1.5138 6.6562 2.6875s4.2074 2.599 6.2188 4.25 3.9505 3.5034 5.875 5.5312 3.8101 4.2269 5.6875 6.5312 3.7549 4.7382 5.625 7.2188c3.7402 4.9611 7.4884 10.155 11.438 15.219 1.9746 2.5318 4.0073 5.0307 6.0938 7.4375s4.2308 4.7247 6.4688 6.9062c2.1097 2.0564 4.3151 3.9804 6.5938 5.75l16.562-93.438c-45.382-3.8738-58.389-74.083-93.531-72.938z" fill="url(#a)"/>
   </g>
   <g transform="matrix(-1 0 0 -1 561.64 1326.9)">
    <path d="m322.09 445.78c-3.6431-4.7194-7.1835-9.5186-10.656-14.125-1.8701-2.4806-3.7163-4.9144-5.5938-7.2188s-3.7942-4.4721-5.7188-6.5-3.8637-3.9115-5.875-5.5625-4.0809-3.0762-6.2188-4.25-4.3521-2.0914-6.6562-2.6875c-1.1521-0.29807-2.3301-0.5214-3.5312-0.65625s-2.4324-0.16591-3.6875-0.125c-1.2551 0.0409-2.5297 0.14578-3.8438 0.375s-2.6533 0.56992-4.0312 1-2.8032 0.95027-4.25 1.5938c-0.94838 0.42178-1.9265 0.98207-2.9062 1.5l11.594 129.06 32.312 15.156 19.062-107.56z" fill="url(#c)"/>
    <path d="m267.09 310.69c-1.2551 0.0409-2.5297 0.17703-3.8438 0.40625s-2.6533 0.56992-4.0312 1-2.8032 0.95027-4.25 1.5938c-1.3739 0.61102-2.7784 1.3418-4.2188 2.1562l8.375 93.281c0.97974-0.51793 1.9579-1.0782 2.9062-1.5 1.4468-0.64348 2.872-1.1637 4.25-1.5938s2.7172-0.77078 4.0312-1 2.5887-0.33409 3.8438-0.375c1.2551-0.0409 2.4864-0.01 3.6875 0.125 1.2011 0.13485 2.3792 0.35818 3.5312 0.65625 2.3042 0.59615 4.5184 1.5138 6.6562 2.6875s4.2074 2.599 6.2188 4.25 3.9505 3.5346 5.875 5.5625 3.8413 4.1956 5.7188 6.5 3.7237 4.7382 5.5938 7.2188c3.4728 4.6064 7.0131 9.4056 10.656 14.125l12.875-72.75c-2.2786-1.7696-4.4841-3.6936-6.5938-5.75-2.238-2.1815-4.3823-4.4994-6.4688-6.9062s-4.1192-4.9057-6.0938-7.4375c-3.9491-5.0635-7.6973-10.258-11.438-15.219-1.8701-2.4806-3.7476-4.9144-5.625-7.2188s-3.763-4.5034-5.6875-6.5312-3.8637-3.8802-5.875-5.5312-4.0809-3.0762-6.2188-4.25-4.3521-2.0914-6.6562-2.6875c-1.1521-0.29807-2.3301-0.5214-3.5312-0.65625s-2.4324-0.19716-3.6875-0.15625z" fill="url(#b)"/>
    <path d="m258 206.66c-5.0204 0.16365-10.48 1.7723-16.562 5.25l9.3125 103.94c1.4403-0.81446 2.8449-1.5452 4.2188-2.1562 1.4468-0.64348 2.872-1.1637 4.25-1.5938s2.7172-0.77078 4.0312-1 2.5887-0.36534 3.8438-0.40625c1.2551-0.0409 2.4864 0.0214 3.6875 0.15625s2.3792 0.35818 3.5312 0.65625c2.3042 0.59615 4.5184 1.5138 6.6562 2.6875s4.2074 2.599 6.2188 4.25 3.9505 3.5034 5.875 5.5312 3.8101 4.2269 5.6875 6.5312 3.7549 4.7382 5.625 7.2188c3.7402 4.9611 7.4884 10.155 11.438 15.219 1.9746 2.5318 4.0073 5.0307 6.0938 7.4375s4.2308 4.7247 6.4688 6.9062c2.1097 2.0564 4.3151 3.9804 6.5938 5.75l16.562-93.438c-45.382-3.8738-58.389-74.083-93.531-72.938z" fill="url(#a)"/>
   </g>
   <g transform="matrix(-.98481 -.17365 .17365 -.98481 442.17 1365.6)">
    <path d="m322.09 445.78c-3.6431-4.7194-7.1835-9.5186-10.656-14.125-1.8701-2.4806-3.7163-4.9144-5.5938-7.2188s-3.7942-4.4721-5.7188-6.5-3.8637-3.9115-5.875-5.5625-4.0809-3.0762-6.2188-4.25-4.3521-2.0914-6.6562-2.6875c-1.1521-0.29807-2.3301-0.5214-3.5312-0.65625s-2.4324-0.16591-3.6875-0.125c-1.2551 0.0409-2.5297 0.14578-3.8438 0.375s-2.6533 0.56992-4.0312 1-2.8032 0.95027-4.25 1.5938c-0.94838 0.42178-1.9265 0.98207-2.9062 1.5l11.594 129.06 32.312 15.156 19.062-107.56z" fill="url(#c)"/>
    <path d="m267.09 310.69c-1.2551 0.0409-2.5297 0.17703-3.8438 0.40625s-2.6533 0.56992-4.0312 1-2.8032 0.95027-4.25 1.5938c-1.3739 0.61102-2.7784 1.3418-4.2188 2.1562l8.375 93.281c0.97974-0.51793 1.9579-1.0782 2.9062-1.5 1.4468-0.64348 2.872-1.1637 4.25-1.5938s2.7172-0.77078 4.0312-1 2.5887-0.33409 3.8438-0.375c1.2551-0.0409 2.4864-0.01 3.6875 0.125 1.2011 0.13485 2.3792 0.35818 3.5312 0.65625 2.3042 0.59615 4.5184 1.5138 6.6562 2.6875s4.2074 2.599 6.2188 4.25 3.9505 3.5346 5.875 5.5625 3.8413 4.1956 5.7188 6.5 3.7237 4.7382 5.5938 7.2188c3.4728 4.6064 7.0131 9.4056 10.656 14.125l12.875-72.75c-2.2786-1.7696-4.4841-3.6936-6.5938-5.75-2.238-2.1815-4.3823-4.4994-6.4688-6.9062s-4.1192-4.9057-6.0938-7.4375c-3.9491-5.0635-7.6973-10.258-11.438-15.219-1.8701-2.4806-3.7476-4.9144-5.625-7.2188s-3.763-4.5034-5.6875-6.5312-3.8637-3.8802-5.875-5.5312-4.0809-3.0762-6.2188-4.25-4.3521-2.0914-6.6562-2.6875c-1.1521-0.29807-2.3301-0.5214-3.5312-0.65625s-2.4324-0.19716-3.6875-0.15625z" fill="url(#b)"/>
    <path d="m258 206.66c-5.0204 0.16365-10.48 1.7723-16.562 5.25l9.3125 103.94c1.4403-0.81446 2.8449-1.5452 4.2188-2.1562 1.4468-0.64348 2.872-1.1637 4.25-1.5938s2.7172-0.77078 4.0312-1 2.5887-0.36534 3.8438-0.40625c1.2551-0.0409 2.4864 0.0214 3.6875 0.15625s2.3792 0.35818 3.5312 0.65625c2.3042 0.59615 4.5184 1.5138 6.6562 2.6875s4.2074 2.599 6.2188 4.25 3.9505 3.5034 5.875 5.5312 3.8101 4.2269 5.6875 6.5312 3.7549 4.7382 5.625 7.2188c3.7402 4.9611 7.4884 10.155 11.438 15.219 1.9746 2.5318 4.0073 5.0307 6.0938 7.4375s4.2308 4.7247 6.4688 6.9062c2.1097 2.0564 4.3151 3.9804 6.5938 5.75l16.562-93.438c-45.382-3.8738-58.389-74.083-93.531-72.938z" fill="url(#a)"/>
   </g>
   <g transform="matrix(-.93969 -.34202 .34202 -.93969 317.79 1382.9)">
    <path d="m322.09 445.78c-3.6431-4.7194-7.1835-9.5186-10.656-14.125-1.8701-2.4806-3.7163-4.9144-5.5938-7.2188s-3.7942-4.4721-5.7188-6.5-3.8637-3.9115-5.875-5.5625-4.0809-3.0762-6.2188-4.25-4.3521-2.0914-6.6562-2.6875c-1.1521-0.29807-2.3301-0.5214-3.5312-0.65625s-2.4324-0.16591-3.6875-0.125c-1.2551 0.0409-2.5297 0.14578-3.8438 0.375s-2.6533 0.56992-4.0312 1-2.8032 0.95027-4.25 1.5938c-0.94838 0.42178-1.9265 0.98207-2.9062 1.5l11.594 129.06 32.312 15.156 19.062-107.56z" fill="url(#c)"/>
    <path d="m267.09 310.69c-1.2551 0.0409-2.5297 0.17703-3.8438 0.40625s-2.6533 0.56992-4.0312 1-2.8032 0.95027-4.25 1.5938c-1.3739 0.61102-2.7784 1.3418-4.2188 2.1562l8.375 93.281c0.97974-0.51793 1.9579-1.0782 2.9062-1.5 1.4468-0.64348 2.872-1.1637 4.25-1.5938s2.7172-0.77078 4.0312-1 2.5887-0.33409 3.8438-0.375c1.2551-0.0409 2.4864-0.01 3.6875 0.125 1.2011 0.13485 2.3792 0.35818 3.5312 0.65625 2.3042 0.59615 4.5184 1.5138 6.6562 2.6875s4.2074 2.599 6.2188 4.25 3.9505 3.5346 5.875 5.5625 3.8413 4.1956 5.7188 6.5 3.7237 4.7382 5.5938 7.2188c3.4728 4.6064 7.0131 9.4056 10.656 14.125l12.875-72.75c-2.2786-1.7696-4.4841-3.6936-6.5938-5.75-2.238-2.1815-4.3823-4.4994-6.4688-6.9062s-4.1192-4.9057-6.0938-7.4375c-3.9491-5.0635-7.6973-10.258-11.438-15.219-1.8701-2.4806-3.7476-4.9144-5.625-7.2188s-3.763-4.5034-5.6875-6.5312-3.8637-3.8802-5.875-5.5312-4.0809-3.0762-6.2188-4.25-4.3521-2.0914-6.6562-2.6875c-1.1521-0.29807-2.3301-0.5214-3.5312-0.65625s-2.4324-0.19716-3.6875-0.15625z" fill="url(#b)"/>
    <path d="m258 206.66c-5.0204 0.16365-10.48 1.7723-16.562 5.25l9.3125 103.94c1.4403-0.81446 2.8449-1.5452 4.2188-2.1562 1.4468-0.64348 2.872-1.1637 4.25-1.5938s2.7172-0.77078 4.0312-1 2.5887-0.36534 3.8438-0.40625c1.2551-0.0409 2.4864 0.0214 3.6875 0.15625s2.3792 0.35818 3.5312 0.65625c2.3042 0.59615 4.5184 1.5138 6.6562 2.6875s4.2074 2.599 6.2188 4.25 3.9505 3.5034 5.875 5.5312 3.8101 4.2269 5.6875 6.5312 3.7549 4.7382 5.625 7.2188c3.7402 4.9611 7.4884 10.155 11.438 15.219 1.9746 2.5318 4.0073 5.0307 6.0938 7.4375s4.2308 4.7247 6.4688 6.9062c2.1097 2.0564 4.3151 3.9804 6.5938 5.75l16.562-93.438c-45.382-3.8738-58.389-74.083-93.531-72.938z" fill="url(#a)"/>
   </g>
   <g transform="matrix(-.86603 -.5 .5 -.86603 192.3 1378.4)">
    <path d="m322.09 445.78c-3.6431-4.7194-7.1835-9.5186-10.656-14.125-1.8701-2.4806-3.7163-4.9144-5.5938-7.2188s-3.7942-4.4721-5.7188-6.5-3.8637-3.9115-5.875-5.5625-4.0809-3.0762-6.2188-4.25-4.3521-2.0914-6.6562-2.6875c-1.1521-0.29807-2.3301-0.5214-3.5312-0.65625s-2.4324-0.16591-3.6875-0.125c-1.2551 0.0409-2.5297 0.14578-3.8438 0.375s-2.6533 0.56992-4.0312 1-2.8032 0.95027-4.25 1.5938c-0.94838 0.42178-1.9265 0.98207-2.9062 1.5l11.594 129.06 32.312 15.156 19.062-107.56z" fill="url(#c)"/>
    <path d="m267.09 310.69c-1.2551 0.0409-2.5297 0.17703-3.8438 0.40625s-2.6533 0.56992-4.0312 1-2.8032 0.95027-4.25 1.5938c-1.3739 0.61102-2.7784 1.3418-4.2188 2.1562l8.375 93.281c0.97974-0.51793 1.9579-1.0782 2.9062-1.5 1.4468-0.64348 2.872-1.1637 4.25-1.5938s2.7172-0.77078 4.0312-1 2.5887-0.33409 3.8438-0.375c1.2551-0.0409 2.4864-0.01 3.6875 0.125 1.2011 0.13485 2.3792 0.35818 3.5312 0.65625 2.3042 0.59615 4.5184 1.5138 6.6562 2.6875s4.2074 2.599 6.2188 4.25 3.9505 3.5346 5.875 5.5625 3.8413 4.1956 5.7188 6.5 3.7237 4.7382 5.5938 7.2188c3.4728 4.6064 7.0131 9.4056 10.656 14.125l12.875-72.75c-2.2786-1.7696-4.4841-3.6936-6.5938-5.75-2.238-2.1815-4.3823-4.4994-6.4688-6.9062s-4.1192-4.9057-6.0938-7.4375c-3.9491-5.0635-7.6973-10.258-11.438-15.219-1.8701-2.4806-3.7476-4.9144-5.625-7.2188s-3.763-4.5034-5.6875-6.5312-3.8637-3.8802-5.875-5.5312-4.0809-3.0762-6.2188-4.25-4.3521-2.0914-6.6562-2.6875c-1.1521-0.29807-2.3301-0.5214-3.5312-0.65625s-2.4324-0.19716-3.6875-0.15625z" fill="url(#b)"/>
    <path d="m258 206.66c-5.0204 0.16365-10.48 1.7723-16.562 5.25l9.3125 103.94c1.4403-0.81446 2.8449-1.5452 4.2188-2.1562 1.4468-0.64348 2.872-1.1637 4.25-1.5938s2.7172-0.77078 4.0312-1 2.5887-0.36534 3.8438-0.40625c1.2551-0.0409 2.4864 0.0214 3.6875 0.15625s2.3792 0.35818 3.5312 0.65625c2.3042 0.59615 4.5184 1.5138 6.6562 2.6875s4.2074 2.599 6.2188 4.25 3.9505 3.5034 5.875 5.5312 3.8101 4.2269 5.6875 6.5312 3.7549 4.7382 5.625 7.2188c3.7402 4.9611 7.4884 10.155 11.438 15.219 1.9746 2.5318 4.0073 5.0307 6.0938 7.4375s4.2308 4.7247 6.4688 6.9062c2.1097 2.0564 4.3151 3.9804 6.5938 5.75l16.562-93.438c-45.382-3.8738-58.389-74.083-93.531-72.938z" fill="url(#a)"/>
   </g>
   <g transform="matrix(-.76604 -.64279 .64279 -.76604 69.485 1352.2)">
    <path d="m322.09 445.78c-3.6431-4.7194-7.1835-9.5186-10.656-14.125-1.8701-2.4806-3.7163-4.9144-5.5938-7.2188s-3.7942-4.4721-5.7188-6.5-3.8637-3.9115-5.875-5.5625-4.0809-3.0762-6.2188-4.25-4.3521-2.0914-6.6562-2.6875c-1.1521-0.29807-2.3301-0.5214-3.5312-0.65625s-2.4324-0.16591-3.6875-0.125c-1.2551 0.0409-2.5297 0.14578-3.8438 0.375s-2.6533 0.56992-4.0312 1-2.8032 0.95027-4.25 1.5938c-0.94838 0.42178-1.9265 0.98207-2.9062 1.5l11.594 129.06 32.312 15.156 19.062-107.56z" fill="url(#c)"/>
    <path d="m267.09 310.69c-1.2551 0.0409-2.5297 0.17703-3.8438 0.40625s-2.6533 0.56992-4.0312 1-2.8032 0.95027-4.25 1.5938c-1.3739 0.61102-2.7784 1.3418-4.2188 2.1562l8.375 93.281c0.97974-0.51793 1.9579-1.0782 2.9062-1.5 1.4468-0.64348 2.872-1.1637 4.25-1.5938s2.7172-0.77078 4.0312-1 2.5887-0.33409 3.8438-0.375c1.2551-0.0409 2.4864-0.01 3.6875 0.125 1.2011 0.13485 2.3792 0.35818 3.5312 0.65625 2.3042 0.59615 4.5184 1.5138 6.6562 2.6875s4.2074 2.599 6.2188 4.25 3.9505 3.5346 5.875 5.5625 3.8413 4.1956 5.7188 6.5 3.7237 4.7382 5.5938 7.2188c3.4728 4.6064 7.0131 9.4056 10.656 14.125l12.875-72.75c-2.2786-1.7696-4.4841-3.6936-6.5938-5.75-2.238-2.1815-4.3823-4.4994-6.4688-6.9062s-4.1192-4.9057-6.0938-7.4375c-3.9491-5.0635-7.6973-10.258-11.438-15.219-1.8701-2.4806-3.7476-4.9144-5.625-7.2188s-3.763-4.5034-5.6875-6.5312-3.8637-3.8802-5.875-5.5312-4.0809-3.0762-6.2188-4.25-4.3521-2.0914-6.6562-2.6875c-1.1521-0.29807-2.3301-0.5214-3.5312-0.65625s-2.4324-0.19716-3.6875-0.15625z" fill="url(#b)"/>
    <path d="m258 206.66c-5.0204 0.16365-10.48 1.7723-16.562 5.25l9.3125 103.94c1.4403-0.81446 2.8449-1.5452 4.2188-2.1562 1.4468-0.64348 2.872-1.1637 4.25-1.5938s2.7172-0.77078 4.0312-1 2.5887-0.36534 3.8438-0.40625c1.2551-0.0409 2.4864 0.0214 3.6875 0.15625s2.3792 0.35818 3.5312 0.65625c2.3042 0.59615 4.5184 1.5138 6.6562 2.6875s4.2074 2.599 6.2188 4.25 3.9505 3.5034 5.875 5.5312 3.8101 4.2269 5.6875 6.5312 3.7549 4.7382 5.625 7.2188c3.7402 4.9611 7.4884 10.155 11.438 15.219 1.9746 2.5318 4.0073 5.0307 6.0938 7.4375s4.2308 4.7247 6.4688 6.9062c2.1097 2.0564 4.3151 3.9804 6.5938 5.75l16.562-93.438c-45.382-3.8738-58.389-74.083-93.531-72.938z" fill="url(#a)"/>
   </g>
   <g transform="matrix(-.64279 -.76604 .76604 -.64279 -46.903 1305)">
    <path d="m322.09 445.78c-3.6431-4.7194-7.1835-9.5186-10.656-14.125-1.8701-2.4806-3.7163-4.9144-5.5938-7.2188s-3.7942-4.4721-5.7188-6.5-3.8637-3.9115-5.875-5.5625-4.0809-3.0762-6.2188-4.25-4.3521-2.0914-6.6562-2.6875c-1.1521-0.29807-2.3301-0.5214-3.5312-0.65625s-2.4324-0.16591-3.6875-0.125c-1.2551 0.0409-2.5297 0.14578-3.8438 0.375s-2.6533 0.56992-4.0312 1-2.8032 0.95027-4.25 1.5938c-0.94838 0.42178-1.9265 0.98207-2.9062 1.5l11.594 129.06 32.312 15.156 19.062-107.56z" fill="url(#c)"/>
    <path d="m267.09 310.69c-1.2551 0.0409-2.5297 0.17703-3.8438 0.40625s-2.6533 0.56992-4.0312 1-2.8032 0.95027-4.25 1.5938c-1.3739 0.61102-2.7784 1.3418-4.2188 2.1562l8.375 93.281c0.97974-0.51793 1.9579-1.0782 2.9062-1.5 1.4468-0.64348 2.872-1.1637 4.25-1.5938s2.7172-0.77078 4.0312-1 2.5887-0.33409 3.8438-0.375c1.2551-0.0409 2.4864-0.01 3.6875 0.125 1.2011 0.13485 2.3792 0.35818 3.5312 0.65625 2.3042 0.59615 4.5184 1.5138 6.6562 2.6875s4.2074 2.599 6.2188 4.25 3.9505 3.5346 5.875 5.5625 3.8413 4.1956 5.7188 6.5 3.7237 4.7382 5.5938 7.2188c3.4728 4.6064 7.0131 9.4056 10.656 14.125l12.875-72.75c-2.2786-1.7696-4.4841-3.6936-6.5938-5.75-2.238-2.1815-4.3823-4.4994-6.4688-6.9062s-4.1192-4.9057-6.0938-7.4375c-3.9491-5.0635-7.6973-10.258-11.438-15.219-1.8701-2.4806-3.7476-4.9144-5.625-7.2188s-3.763-4.5034-5.6875-6.5312-3.8637-3.8802-5.875-5.5312-4.0809-3.0762-6.2188-4.25-4.3521-2.0914-6.6562-2.6875c-1.1521-0.29807-2.3301-0.5214-3.5312-0.65625s-2.4324-0.19716-3.6875-0.15625z" fill="url(#b)"/>
    <path d="m258 206.66c-5.0204 0.16365-10.48 1.7723-16.562 5.25l9.3125 103.94c1.4403-0.81446 2.8449-1.5452 4.2188-2.1562 1.4468-0.64348 2.872-1.1637 4.25-1.5938s2.7172-0.77078 4.0312-1 2.5887-0.36534 3.8438-0.40625c1.2551-0.0409 2.4864 0.0214 3.6875 0.15625s2.3792 0.35818 3.5312 0.65625c2.3042 0.59615 4.5184 1.5138 6.6562 2.6875s4.2074 2.599 6.2188 4.25 3.9505 3.5034 5.875 5.5312 3.8101 4.2269 5.6875 6.5312 3.7549 4.7382 5.625 7.2188c3.7402 4.9611 7.4884 10.155 11.438 15.219 1.9746 2.5318 4.0073 5.0307 6.0938 7.4375s4.2308 4.7247 6.4688 6.9062c2.1097 2.0564 4.3151 3.9804 6.5938 5.75l16.562-93.438c-45.382-3.8738-58.389-74.083-93.531-72.938z" fill="url(#a)"/>
   </g>
   <g transform="matrix(-.5 -.86603 .86603 -.5 -153.33 1238.4)">
    <path d="m322.09 445.78c-3.6431-4.7194-7.1835-9.5186-10.656-14.125-1.8701-2.4806-3.7163-4.9144-5.5938-7.2188s-3.7942-4.4721-5.7188-6.5-3.8637-3.9115-5.875-5.5625-4.0809-3.0762-6.2188-4.25-4.3521-2.0914-6.6562-2.6875c-1.1521-0.29807-2.3301-0.5214-3.5312-0.65625s-2.4324-0.16591-3.6875-0.125c-1.2551 0.0409-2.5297 0.14578-3.8438 0.375s-2.6533 0.56992-4.0312 1-2.8032 0.95027-4.25 1.5938c-0.94838 0.42178-1.9265 0.98207-2.9062 1.5l11.594 129.06 32.312 15.156 19.062-107.56z" fill="url(#c)"/>
    <path d="m267.09 310.69c-1.2551 0.0409-2.5297 0.17703-3.8438 0.40625s-2.6533 0.56992-4.0312 1-2.8032 0.95027-4.25 1.5938c-1.3739 0.61102-2.7784 1.3418-4.2188 2.1562l8.375 93.281c0.97974-0.51793 1.9579-1.0782 2.9062-1.5 1.4468-0.64348 2.872-1.1637 4.25-1.5938s2.7172-0.77078 4.0312-1 2.5887-0.33409 3.8438-0.375c1.2551-0.0409 2.4864-0.01 3.6875 0.125 1.2011 0.13485 2.3792 0.35818 3.5312 0.65625 2.3042 0.59615 4.5184 1.5138 6.6562 2.6875s4.2074 2.599 6.2188 4.25 3.9505 3.5346 5.875 5.5625 3.8413 4.1956 5.7188 6.5 3.7237 4.7382 5.5938 7.2188c3.4728 4.6064 7.0131 9.4056 10.656 14.125l12.875-72.75c-2.2786-1.7696-4.4841-3.6936-6.5938-5.75-2.238-2.1815-4.3823-4.4994-6.4688-6.9062s-4.1192-4.9057-6.0938-7.4375c-3.9491-5.0635-7.6973-10.258-11.438-15.219-1.8701-2.4806-3.7476-4.9144-5.625-7.2188s-3.763-4.5034-5.6875-6.5312-3.8637-3.8802-5.875-5.5312-4.0809-3.0762-6.2188-4.25-4.3521-2.0914-6.6562-2.6875c-1.1521-0.29807-2.3301-0.5214-3.5312-0.65625s-2.4324-0.19716-3.6875-0.15625z" fill="url(#b)"/>
    <path d="m258 206.66c-5.0204 0.16365-10.48 1.7723-16.562 5.25l9.3125 103.94c1.4403-0.81446 2.8449-1.5452 4.2188-2.1562 1.4468-0.64348 2.872-1.1637 4.25-1.5938s2.7172-0.77078 4.0312-1 2.5887-0.36534 3.8438-0.40625c1.2551-0.0409 2.4864 0.0214 3.6875 0.15625s2.3792 0.35818 3.5312 0.65625c2.3042 0.59615 4.5184 1.5138 6.6562 2.6875s4.2074 2.599 6.2188 4.25 3.9505 3.5034 5.875 5.5312 3.8101 4.2269 5.6875 6.5312 3.7549 4.7382 5.625 7.2188c3.7402 4.9611 7.4884 10.155 11.438 15.219 1.9746 2.5318 4.0073 5.0307 6.0938 7.4375s4.2308 4.7247 6.4688 6.9062c2.1097 2.0564 4.3151 3.9804 6.5938 5.75l16.562-93.438c-45.382-3.8738-58.389-74.083-93.531-72.938z" fill="url(#a)"/>
   </g>
   <g transform="matrix(-.34202 -.93969 .93969 -.34202 -246.57 1154.3)">
    <path d="m322.09 445.78c-3.6431-4.7194-7.1835-9.5186-10.656-14.125-1.8701-2.4806-3.7163-4.9144-5.5938-7.2188s-3.7942-4.4721-5.7188-6.5-3.8637-3.9115-5.875-5.5625-4.0809-3.0762-6.2188-4.25-4.3521-2.0914-6.6562-2.6875c-1.1521-0.29807-2.3301-0.5214-3.5312-0.65625s-2.4324-0.16591-3.6875-0.125c-1.2551 0.0409-2.5297 0.14578-3.8438 0.375s-2.6533 0.56992-4.0312 1-2.8032 0.95027-4.25 1.5938c-0.94838 0.42178-1.9265 0.98207-2.9062 1.5l11.594 129.06 32.312 15.156 19.062-107.56z" fill="url(#c)"/>
    <path d="m267.09 310.69c-1.2551 0.0409-2.5297 0.17703-3.8438 0.40625s-2.6533 0.56992-4.0312 1-2.8032 0.95027-4.25 1.5938c-1.3739 0.61102-2.7784 1.3418-4.2188 2.1562l8.375 93.281c0.97974-0.51793 1.9579-1.0782 2.9062-1.5 1.4468-0.64348 2.872-1.1637 4.25-1.5938s2.7172-0.77078 4.0312-1 2.5887-0.33409 3.8438-0.375c1.2551-0.0409 2.4864-0.01 3.6875 0.125 1.2011 0.13485 2.3792 0.35818 3.5312 0.65625 2.3042 0.59615 4.5184 1.5138 6.6562 2.6875s4.2074 2.599 6.2188 4.25 3.9505 3.5346 5.875 5.5625 3.8413 4.1956 5.7188 6.5 3.7237 4.7382 5.5938 7.2188c3.4728 4.6064 7.0131 9.4056 10.656 14.125l12.875-72.75c-2.2786-1.7696-4.4841-3.6936-6.5938-5.75-2.238-2.1815-4.3823-4.4994-6.4688-6.9062s-4.1192-4.9057-6.0938-7.4375c-3.9491-5.0635-7.6973-10.258-11.438-15.219-1.8701-2.4806-3.7476-4.9144-5.625-7.2188s-3.763-4.5034-5.6875-6.5312-3.8637-3.8802-5.875-5.5312-4.0809-3.0762-6.2188-4.25-4.3521-2.0914-6.6562-2.6875c-1.1521-0.29807-2.3301-0.5214-3.5312-0.65625s-2.4324-0.19716-3.6875-0.15625z" fill="url(#b)"/>
    <path d="m258 206.66c-5.0204 0.16365-10.48 1.7723-16.562 5.25l9.3125 103.94c1.4403-0.81446 2.8449-1.5452 4.2188-2.1562 1.4468-0.64348 2.872-1.1637 4.25-1.5938s2.7172-0.77078 4.0312-1 2.5887-0.36534 3.8438-0.40625c1.2551-0.0409 2.4864 0.0214 3.6875 0.15625s2.3792 0.35818 3.5312 0.65625c2.3042 0.59615 4.5184 1.5138 6.6562 2.6875s4.2074 2.599 6.2188 4.25 3.9505 3.5034 5.875 5.5312 3.8101 4.2269 5.6875 6.5312 3.7549 4.7382 5.625 7.2188c3.7402 4.9611 7.4884 10.155 11.438 15.219 1.9746 2.5318 4.0073 5.0307 6.0938 7.4375s4.2308 4.7247 6.4688 6.9062c2.1097 2.0564 4.3151 3.9804 6.5938 5.75l16.562-93.438c-45.382-3.8738-58.389-74.083-93.531-72.938z" fill="url(#a)"/>
   </g>
   <g transform="matrix(-.17365 -.98481 .98481 -.17365 -323.79 1055.2)">
    <path d="m322.09 445.78c-3.6431-4.7194-7.1835-9.5186-10.656-14.125-1.8701-2.4806-3.7163-4.9144-5.5938-7.2188s-3.7942-4.4721-5.7188-6.5-3.8637-3.9115-5.875-5.5625-4.0809-3.0762-6.2188-4.25-4.3521-2.0914-6.6562-2.6875c-1.1521-0.29807-2.3301-0.5214-3.5312-0.65625s-2.4324-0.16591-3.6875-0.125c-1.2551 0.0409-2.5297 0.14578-3.8438 0.375s-2.6533 0.56992-4.0312 1-2.8032 0.95027-4.25 1.5938c-0.94838 0.42178-1.9265 0.98207-2.9062 1.5l11.594 129.06 32.312 15.156 19.062-107.56z" fill="url(#c)"/>
    <path d="m267.09 310.69c-1.2551 0.0409-2.5297 0.17703-3.8438 0.40625s-2.6533 0.56992-4.0312 1-2.8032 0.95027-4.25 1.5938c-1.3739 0.61102-2.7784 1.3418-4.2188 2.1562l8.375 93.281c0.97974-0.51793 1.9579-1.0782 2.9062-1.5 1.4468-0.64348 2.872-1.1637 4.25-1.5938s2.7172-0.77078 4.0312-1 2.5887-0.33409 3.8438-0.375c1.2551-0.0409 2.4864-0.01 3.6875 0.125 1.2011 0.13485 2.3792 0.35818 3.5312 0.65625 2.3042 0.59615 4.5184 1.5138 6.6562 2.6875s4.2074 2.599 6.2188 4.25 3.9505 3.5346 5.875 5.5625 3.8413 4.1956 5.7188 6.5 3.7237 4.7382 5.5938 7.2188c3.4728 4.6064 7.0131 9.4056 10.656 14.125l12.875-72.75c-2.2786-1.7696-4.4841-3.6936-6.5938-5.75-2.238-2.1815-4.3823-4.4994-6.4688-6.9062s-4.1192-4.9057-6.0938-7.4375c-3.9491-5.0635-7.6973-10.258-11.438-15.219-1.8701-2.4806-3.7476-4.9144-5.625-7.2188s-3.763-4.5034-5.6875-6.5312-3.8637-3.8802-5.875-5.5312-4.0809-3.0762-6.2188-4.25-4.3521-2.0914-6.6562-2.6875c-1.1521-0.29807-2.3301-0.5214-3.5312-0.65625s-2.4324-0.19716-3.6875-0.15625z" fill="url(#b)"/>
    <path d="m258 206.66c-5.0204 0.16365-10.48 1.7723-16.562 5.25l9.3125 103.94c1.4403-0.81446 2.8449-1.5452 4.2188-2.1562 1.4468-0.64348 2.872-1.1637 4.25-1.5938s2.7172-0.77078 4.0312-1 2.5887-0.36534 3.8438-0.40625c1.2551-0.0409 2.4864 0.0214 3.6875 0.15625s2.3792 0.35818 3.5312 0.65625c2.3042 0.59615 4.5184 1.5138 6.6562 2.6875s4.2074 2.599 6.2188 4.25 3.9505 3.5034 5.875 5.5312 3.8101 4.2269 5.6875 6.5312 3.7549 4.7382 5.625 7.2188c3.7402 4.9611 7.4884 10.155 11.438 15.219 1.9746 2.5318 4.0073 5.0307 6.0938 7.4375s4.2308 4.7247 6.4688 6.9062c2.1097 2.0564 4.3151 3.9804 6.5938 5.75l16.562-93.438c-45.382-3.8738-58.389-74.083-93.531-72.938z" fill="url(#a)"/>
   </g>
   <g transform="matrix(0 -1 1 0 -382.63 944.28)">
    <path d="m322.09 445.78c-3.6431-4.7194-7.1835-9.5186-10.656-14.125-1.8701-2.4806-3.7163-4.9144-5.5938-7.2188s-3.7942-4.4721-5.7188-6.5-3.8637-3.9115-5.875-5.5625-4.0809-3.0762-6.2188-4.25-4.3521-2.0914-6.6562-2.6875c-1.1521-0.29807-2.3301-0.5214-3.5312-0.65625s-2.4324-0.16591-3.6875-0.125c-1.2551 0.0409-2.5297 0.14578-3.8438 0.375s-2.6533 0.56992-4.0312 1-2.8032 0.95027-4.25 1.5938c-0.94838 0.42178-1.9265 0.98207-2.9062 1.5l11.594 129.06 32.312 15.156 19.062-107.56z" fill="url(#c)"/>
    <path d="m267.09 310.69c-1.2551 0.0409-2.5297 0.17703-3.8438 0.40625s-2.6533 0.56992-4.0312 1-2.8032 0.95027-4.25 1.5938c-1.3739 0.61102-2.7784 1.3418-4.2188 2.1562l8.375 93.281c0.97974-0.51793 1.9579-1.0782 2.9062-1.5 1.4468-0.64348 2.872-1.1637 4.25-1.5938s2.7172-0.77078 4.0312-1 2.5887-0.33409 3.8438-0.375c1.2551-0.0409 2.4864-0.01 3.6875 0.125 1.2011 0.13485 2.3792 0.35818 3.5312 0.65625 2.3042 0.59615 4.5184 1.5138 6.6562 2.6875s4.2074 2.599 6.2188 4.25 3.9505 3.5346 5.875 5.5625 3.8413 4.1956 5.7188 6.5 3.7237 4.7382 5.5938 7.2188c3.4728 4.6064 7.0131 9.4056 10.656 14.125l12.875-72.75c-2.2786-1.7696-4.4841-3.6936-6.5938-5.75-2.238-2.1815-4.3823-4.4994-6.4688-6.9062s-4.1192-4.9057-6.0938-7.4375c-3.9491-5.0635-7.6973-10.258-11.438-15.219-1.8701-2.4806-3.7476-4.9144-5.625-7.2188s-3.763-4.5034-5.6875-6.5312-3.8637-3.8802-5.875-5.5312-4.0809-3.0762-6.2188-4.25-4.3521-2.0914-6.6562-2.6875c-1.1521-0.29807-2.3301-0.5214-3.5312-0.65625s-2.4324-0.19716-3.6875-0.15625z" fill="url(#b)"/>
    <path d="m258 206.66c-5.0204 0.16365-10.48 1.7723-16.562 5.25l9.3125 103.94c1.4403-0.81446 2.8449-1.5452 4.2188-2.1562 1.4468-0.64348 2.872-1.1637 4.25-1.5938s2.7172-0.77078 4.0312-1 2.5887-0.36534 3.8438-0.40625c1.2551-0.0409 2.4864 0.0214 3.6875 0.15625s2.3792 0.35818 3.5312 0.65625c2.3042 0.59615 4.5184 1.5138 6.6562 2.6875s4.2074 2.599 6.2188 4.25 3.9505 3.5034 5.875 5.5312 3.8101 4.2269 5.6875 6.5312 3.7549 4.7382 5.625 7.2188c3.7402 4.9611 7.4884 10.155 11.438 15.219 1.9746 2.5318 4.0073 5.0307 6.0938 7.4375s4.2308 4.7247 6.4688 6.9062c2.1097 2.0564 4.3151 3.9804 6.5938 5.75l16.562-93.438c-45.382-3.8738-58.389-74.083-93.531-72.938z" fill="url(#a)"/>
   </g>
   <g transform="matrix(.17365 -.98481 .98481 .17365 -421.32 824.8)">
    <path d="m322.09 445.78c-3.6431-4.7194-7.1835-9.5186-10.656-14.125-1.8701-2.4806-3.7163-4.9144-5.5938-7.2188s-3.7942-4.4721-5.7188-6.5-3.8637-3.9115-5.875-5.5625-4.0809-3.0762-6.2188-4.25-4.3521-2.0914-6.6562-2.6875c-1.1521-0.29807-2.3301-0.5214-3.5312-0.65625s-2.4324-0.16591-3.6875-0.125c-1.2551 0.0409-2.5297 0.14578-3.8438 0.375s-2.6533 0.56992-4.0312 1-2.8032 0.95027-4.25 1.5938c-0.94838 0.42178-1.9265 0.98207-2.9062 1.5l11.594 129.06 32.312 15.156 19.062-107.56z" fill="url(#c)"/>
    <path d="m267.09 310.69c-1.2551 0.0409-2.5297 0.17703-3.8438 0.40625s-2.6533 0.56992-4.0312 1-2.8032 0.95027-4.25 1.5938c-1.3739 0.61102-2.7784 1.3418-4.2188 2.1562l8.375 93.281c0.97974-0.51793 1.9579-1.0782 2.9062-1.5 1.4468-0.64348 2.872-1.1637 4.25-1.5938s2.7172-0.77078 4.0312-1 2.5887-0.33409 3.8438-0.375c1.2551-0.0409 2.4864-0.01 3.6875 0.125 1.2011 0.13485 2.3792 0.35818 3.5312 0.65625 2.3042 0.59615 4.5184 1.5138 6.6562 2.6875s4.2074 2.599 6.2188 4.25 3.9505 3.5346 5.875 5.5625 3.8413 4.1956 5.7188 6.5 3.7237 4.7382 5.5938 7.2188c3.4728 4.6064 7.0131 9.4056 10.656 14.125l12.875-72.75c-2.2786-1.7696-4.4841-3.6936-6.5938-5.75-2.238-2.1815-4.3823-4.4994-6.4688-6.9062s-4.1192-4.9057-6.0938-7.4375c-3.9491-5.0635-7.6973-10.258-11.438-15.219-1.8701-2.4806-3.7476-4.9144-5.625-7.2188s-3.763-4.5034-5.6875-6.5312-3.8637-3.8802-5.875-5.5312-4.0809-3.0762-6.2188-4.25-4.3521-2.0914-6.6562-2.6875c-1.1521-0.29807-2.3301-0.5214-3.5312-0.65625s-2.4324-0.19716-3.6875-0.15625z" fill="url(#b)"/>
    <path d="m258 206.66c-5.0204 0.16365-10.48 1.7723-16.562 5.25l9.3125 103.94c1.4403-0.81446 2.8449-1.5452 4.2188-2.1562 1.4468-0.64348 2.872-1.1637 4.25-1.5938s2.7172-0.77078 4.0312-1 2.5887-0.36534 3.8438-0.40625c1.2551-0.0409 2.4864 0.0214 3.6875 0.15625s2.3792 0.35818 3.5312 0.65625c2.3042 0.59615 4.5184 1.5138 6.6562 2.6875s4.2074 2.599 6.2188 4.25 3.9505 3.5034 5.875 5.5312 3.8101 4.2269 5.6875 6.5312 3.7549 4.7382 5.625 7.2188c3.7402 4.9611 7.4884 10.155 11.438 15.219 1.9746 2.5318 4.0073 5.0307 6.0938 7.4375s4.2308 4.7247 6.4688 6.9062c2.1097 2.0564 4.3151 3.9804 6.5938 5.75l16.562-93.438c-45.382-3.8738-58.389-74.083-93.531-72.938z" fill="url(#a)"/>
   </g>
   <g transform="matrix(.34202 -.93969 .93969 .34202 -438.67 700.43)">
    <path d="m322.09 445.78c-3.6431-4.7194-7.1835-9.5186-10.656-14.125-1.8701-2.4806-3.7163-4.9144-5.5938-7.2188s-3.7942-4.4721-5.7188-6.5-3.8637-3.9115-5.875-5.5625-4.0809-3.0762-6.2188-4.25-4.3521-2.0914-6.6562-2.6875c-1.1521-0.29807-2.3301-0.5214-3.5312-0.65625s-2.4324-0.16591-3.6875-0.125c-1.2551 0.0409-2.5297 0.14578-3.8438 0.375s-2.6533 0.56992-4.0312 1-2.8032 0.95027-4.25 1.5938c-0.94838 0.42178-1.9265 0.98207-2.9062 1.5l11.594 129.06 32.312 15.156 19.062-107.56z" fill="url(#c)"/>
    <path d="m267.09 310.69c-1.2551 0.0409-2.5297 0.17703-3.8438 0.40625s-2.6533 0.56992-4.0312 1-2.8032 0.95027-4.25 1.5938c-1.3739 0.61102-2.7784 1.3418-4.2188 2.1562l8.375 93.281c0.97974-0.51793 1.9579-1.0782 2.9062-1.5 1.4468-0.64348 2.872-1.1637 4.25-1.5938s2.7172-0.77078 4.0312-1 2.5887-0.33409 3.8438-0.375c1.2551-0.0409 2.4864-0.01 3.6875 0.125 1.2011 0.13485 2.3792 0.35818 3.5312 0.65625 2.3042 0.59615 4.5184 1.5138 6.6562 2.6875s4.2074 2.599 6.2188 4.25 3.9505 3.5346 5.875 5.5625 3.8413 4.1956 5.7188 6.5 3.7237 4.7382 5.5938 7.2188c3.4728 4.6064 7.0131 9.4056 10.656 14.125l12.875-72.75c-2.2786-1.7696-4.4841-3.6936-6.5938-5.75-2.238-2.1815-4.3823-4.4994-6.4688-6.9062s-4.1192-4.9057-6.0938-7.4375c-3.9491-5.0635-7.6973-10.258-11.438-15.219-1.8701-2.4806-3.7476-4.9144-5.625-7.2188s-3.763-4.5034-5.6875-6.5312-3.8637-3.8802-5.875-5.5312-4.0809-3.0762-6.2188-4.25-4.3521-2.0914-6.6562-2.6875c-1.1521-0.29807-2.3301-0.5214-3.5312-0.65625s-2.4324-0.19716-3.6875-0.15625z" fill="url(#b)"/>
    <path d="m258 206.66c-5.0204 0.16365-10.48 1.7723-16.562 5.25l9.3125 103.94c1.4403-0.81446 2.8449-1.5452 4.2188-2.1562 1.4468-0.64348 2.872-1.1637 4.25-1.5938s2.7172-0.77078 4.0312-1 2.5887-0.36534 3.8438-0.40625c1.2551-0.0409 2.4864 0.0214 3.6875 0.15625s2.3792 0.35818 3.5312 0.65625c2.3042 0.59615 4.5184 1.5138 6.6562 2.6875s4.2074 2.599 6.2188 4.25 3.9505 3.5034 5.875 5.5312 3.8101 4.2269 5.6875 6.5312 3.7549 4.7382 5.625 7.2188c3.7402 4.9611 7.4884 10.155 11.438 15.219 1.9746 2.5318 4.0073 5.0307 6.0938 7.4375s4.2308 4.7247 6.4688 6.9062c2.1097 2.0564 4.3151 3.9804 6.5938 5.75l16.562-93.438c-45.382-3.8738-58.389-74.083-93.531-72.938z" fill="url(#a)"/>
   </g>
   <g transform="matrix(.5 -.86603 .86603 .5 -434.16 574.93)">
    <path d="m322.09 445.78c-3.6431-4.7194-7.1835-9.5186-10.656-14.125-1.8701-2.4806-3.7163-4.9144-5.5938-7.2188s-3.7942-4.4721-5.7188-6.5-3.8637-3.9115-5.875-5.5625-4.0809-3.0762-6.2188-4.25-4.3521-2.0914-6.6562-2.6875c-1.1521-0.29807-2.3301-0.5214-3.5312-0.65625s-2.4324-0.16591-3.6875-0.125c-1.2551 0.0409-2.5297 0.14578-3.8438 0.375s-2.6533 0.56992-4.0312 1-2.8032 0.95027-4.25 1.5938c-0.94838 0.42178-1.9265 0.98207-2.9062 1.5l11.594 129.06 32.312 15.156 19.062-107.56z" fill="url(#c)"/>
    <path d="m267.09 310.69c-1.2551 0.0409-2.5297 0.17703-3.8438 0.40625s-2.6533 0.56992-4.0312 1-2.8032 0.95027-4.25 1.5938c-1.3739 0.61102-2.7784 1.3418-4.2188 2.1562l8.375 93.281c0.97974-0.51793 1.9579-1.0782 2.9062-1.5 1.4468-0.64348 2.872-1.1637 4.25-1.5938s2.7172-0.77078 4.0312-1 2.5887-0.33409 3.8438-0.375c1.2551-0.0409 2.4864-0.01 3.6875 0.125 1.2011 0.13485 2.3792 0.35818 3.5312 0.65625 2.3042 0.59615 4.5184 1.5138 6.6562 2.6875s4.2074 2.599 6.2188 4.25 3.9505 3.5346 5.875 5.5625 3.8413 4.1956 5.7188 6.5 3.7237 4.7382 5.5938 7.2188c3.4728 4.6064 7.0131 9.4056 10.656 14.125l12.875-72.75c-2.2786-1.7696-4.4841-3.6936-6.5938-5.75-2.238-2.1815-4.3823-4.4994-6.4688-6.9062s-4.1192-4.9057-6.0938-7.4375c-3.9491-5.0635-7.6973-10.258-11.438-15.219-1.8701-2.4806-3.7476-4.9144-5.625-7.2188s-3.763-4.5034-5.6875-6.5312-3.8637-3.8802-5.875-5.5312-4.0809-3.0762-6.2188-4.25-4.3521-2.0914-6.6562-2.6875c-1.1521-0.29807-2.3301-0.5214-3.5312-0.65625s-2.4324-0.19716-3.6875-0.15625z" fill="url(#b)"/>
    <path d="m258 206.66c-5.0204 0.16365-10.48 1.7723-16.562 5.25l9.3125 103.94c1.4403-0.81446 2.8449-1.5452 4.2188-2.1562 1.4468-0.64348 2.872-1.1637 4.25-1.5938s2.7172-0.77078 4.0312-1 2.5887-0.36534 3.8438-0.40625c1.2551-0.0409 2.4864 0.0214 3.6875 0.15625s2.3792 0.35818 3.5312 0.65625c2.3042 0.59615 4.5184 1.5138 6.6562 2.6875s4.2074 2.599 6.2188 4.25 3.9505 3.5034 5.875 5.5312 3.8101 4.2269 5.6875 6.5312 3.7549 4.7382 5.625 7.2188c3.7402 4.9611 7.4884 10.155 11.438 15.219 1.9746 2.5318 4.0073 5.0307 6.0938 7.4375s4.2308 4.7247 6.4688 6.9062c2.1097 2.0564 4.3151 3.9804 6.5938 5.75l16.562-93.438c-45.382-3.8738-58.389-74.083-93.531-72.938z" fill="url(#a)"/>
   </g>
   <g transform="matrix(.64279 -.76604 .76604 .64279 -407.92 452.12)">
    <path d="m322.09 445.78c-3.6431-4.7194-7.1835-9.5186-10.656-14.125-1.8701-2.4806-3.7163-4.9144-5.5938-7.2188s-3.7942-4.4721-5.7188-6.5-3.8637-3.9115-5.875-5.5625-4.0809-3.0762-6.2188-4.25-4.3521-2.0914-6.6562-2.6875c-1.1521-0.29807-2.3301-0.5214-3.5312-0.65625s-2.4324-0.16591-3.6875-0.125c-1.2551 0.0409-2.5297 0.14578-3.8438 0.375s-2.6533 0.56992-4.0312 1-2.8032 0.95027-4.25 1.5938c-0.94838 0.42178-1.9265 0.98207-2.9062 1.5l11.594 129.06 32.312 15.156 19.062-107.56z" fill="url(#c)"/>
    <path d="m267.09 310.69c-1.2551 0.0409-2.5297 0.17703-3.8438 0.40625s-2.6533 0.56992-4.0312 1-2.8032 0.95027-4.25 1.5938c-1.3739 0.61102-2.7784 1.3418-4.2188 2.1562l8.375 93.281c0.97974-0.51793 1.9579-1.0782 2.9062-1.5 1.4468-0.64348 2.872-1.1637 4.25-1.5938s2.7172-0.77078 4.0312-1 2.5887-0.33409 3.8438-0.375c1.2551-0.0409 2.4864-0.01 3.6875 0.125 1.2011 0.13485 2.3792 0.35818 3.5312 0.65625 2.3042 0.59615 4.5184 1.5138 6.6562 2.6875s4.2074 2.599 6.2188 4.25 3.9505 3.5346 5.875 5.5625 3.8413 4.1956 5.7188 6.5 3.7237 4.7382 5.5938 7.2188c3.4728 4.6064 7.0131 9.4056 10.656 14.125l12.875-72.75c-2.2786-1.7696-4.4841-3.6936-6.5938-5.75-2.238-2.1815-4.3823-4.4994-6.4688-6.9062s-4.1192-4.9057-6.0938-7.4375c-3.9491-5.0635-7.6973-10.258-11.438-15.219-1.8701-2.4806-3.7476-4.9144-5.625-7.2188s-3.763-4.5034-5.6875-6.5312-3.8637-3.8802-5.875-5.5312-4.0809-3.0762-6.2188-4.25-4.3521-2.0914-6.6562-2.6875c-1.1521-0.29807-2.3301-0.5214-3.5312-0.65625s-2.4324-0.19716-3.6875-0.15625z" fill="url(#b)"/>
    <path d="m258 206.66c-5.0204 0.16365-10.48 1.7723-16.562 5.25l9.3125 103.94c1.4403-0.81446 2.8449-1.5452 4.2188-2.1562 1.4468-0.64348 2.872-1.1637 4.25-1.5938s2.7172-0.77078 4.0312-1 2.5887-0.36534 3.8438-0.40625c1.2551-0.0409 2.4864 0.0214 3.6875 0.15625s2.3792 0.35818 3.5312 0.65625c2.3042 0.59615 4.5184 1.5138 6.6562 2.6875s4.2074 2.599 6.2188 4.25 3.9505 3.5034 5.875 5.5312 3.8101 4.2269 5.6875 6.5312 3.7549 4.7382 5.625 7.2188c3.7402 4.9611 7.4884 10.155 11.438 15.219 1.9746 2.5318 4.0073 5.0307 6.0938 7.4375s4.2308 4.7247 6.4688 6.9062c2.1097 2.0564 4.3151 3.9804 6.5938 5.75l16.562-93.438c-45.382-3.8738-58.389-74.083-93.531-72.938z" fill="url(#a)"/>
   </g>
   <g transform="matrix(.76604 -.64279 .64279 .76604 -360.76 335.73)">
    <path d="m322.09 445.78c-3.6431-4.7194-7.1835-9.5186-10.656-14.125-1.8701-2.4806-3.7163-4.9144-5.5938-7.2188s-3.7942-4.4721-5.7188-6.5-3.8637-3.9115-5.875-5.5625-4.0809-3.0762-6.2188-4.25-4.3521-2.0914-6.6562-2.6875c-1.1521-0.29807-2.3301-0.5214-3.5312-0.65625s-2.4324-0.16591-3.6875-0.125c-1.2551 0.0409-2.5297 0.14578-3.8438 0.375s-2.6533 0.56992-4.0312 1-2.8032 0.95027-4.25 1.5938c-0.94838 0.42178-1.9265 0.98207-2.9062 1.5l11.594 129.06 32.312 15.156 19.062-107.56z" fill="url(#c)"/>
    <path d="m267.09 310.69c-1.2551 0.0409-2.5297 0.17703-3.8438 0.40625s-2.6533 0.56992-4.0312 1-2.8032 0.95027-4.25 1.5938c-1.3739 0.61102-2.7784 1.3418-4.2188 2.1562l8.375 93.281c0.97974-0.51793 1.9579-1.0782 2.9062-1.5 1.4468-0.64348 2.872-1.1637 4.25-1.5938s2.7172-0.77078 4.0312-1 2.5887-0.33409 3.8438-0.375c1.2551-0.0409 2.4864-0.01 3.6875 0.125 1.2011 0.13485 2.3792 0.35818 3.5312 0.65625 2.3042 0.59615 4.5184 1.5138 6.6562 2.6875s4.2074 2.599 6.2188 4.25 3.9505 3.5346 5.875 5.5625 3.8413 4.1956 5.7188 6.5 3.7237 4.7382 5.5938 7.2188c3.4728 4.6064 7.0131 9.4056 10.656 14.125l12.875-72.75c-2.2786-1.7696-4.4841-3.6936-6.5938-5.75-2.238-2.1815-4.3823-4.4994-6.4688-6.9062s-4.1192-4.9057-6.0938-7.4375c-3.9491-5.0635-7.6973-10.258-11.438-15.219-1.8701-2.4806-3.7476-4.9144-5.625-7.2188s-3.763-4.5034-5.6875-6.5312-3.8637-3.8802-5.875-5.5312-4.0809-3.0762-6.2188-4.25-4.3521-2.0914-6.6562-2.6875c-1.1521-0.29807-2.3301-0.5214-3.5312-0.65625s-2.4324-0.19716-3.6875-0.15625z" fill="url(#b)"/>
    <path d="m258 206.66c-5.0204 0.16365-10.48 1.7723-16.562 5.25l9.3125 103.94c1.4403-0.81446 2.8449-1.5452 4.2188-2.1562 1.4468-0.64348 2.872-1.1637 4.25-1.5938s2.7172-0.77078 4.0312-1 2.5887-0.36534 3.8438-0.40625c1.2551-0.0409 2.4864 0.0214 3.6875 0.15625s2.3792 0.35818 3.5312 0.65625c2.3042 0.59615 4.5184 1.5138 6.6562 2.6875s4.2074 2.599 6.2188 4.25 3.9505 3.5034 5.875 5.5312 3.8101 4.2269 5.6875 6.5312 3.7549 4.7382 5.625 7.2188c3.7402 4.9611 7.4884 10.155 11.438 15.219 1.9746 2.5318 4.0073 5.0307 6.0938 7.4375s4.2308 4.7247 6.4688 6.9062c2.1097 2.0564 4.3151 3.9804 6.5938 5.75l16.562-93.438c-45.382-3.8738-58.389-74.083-93.531-72.938z" fill="url(#a)"/>
   </g>
   <g transform="matrix(.86603 -.5 .5 .86603 -294.1 229.3)">
    <path d="m322.09 445.78c-3.6431-4.7194-7.1835-9.5186-10.656-14.125-1.8701-2.4806-3.7163-4.9144-5.5938-7.2188s-3.7942-4.4721-5.7188-6.5-3.8637-3.9115-5.875-5.5625-4.0809-3.0762-6.2188-4.25-4.3521-2.0914-6.6562-2.6875c-1.1521-0.29807-2.3301-0.5214-3.5312-0.65625s-2.4324-0.16591-3.6875-0.125c-1.2551 0.0409-2.5297 0.14578-3.8438 0.375s-2.6533 0.56992-4.0312 1-2.8032 0.95027-4.25 1.5938c-0.94838 0.42178-1.9265 0.98207-2.9062 1.5l11.594 129.06 32.312 15.156 19.062-107.56z" fill="url(#c)"/>
    <path d="m267.09 310.69c-1.2551 0.0409-2.5297 0.17703-3.8438 0.40625s-2.6533 0.56992-4.0312 1-2.8032 0.95027-4.25 1.5938c-1.3739 0.61102-2.7784 1.3418-4.2188 2.1562l8.375 93.281c0.97974-0.51793 1.9579-1.0782 2.9062-1.5 1.4468-0.64348 2.872-1.1637 4.25-1.5938s2.7172-0.77078 4.0312-1 2.5887-0.33409 3.8438-0.375c1.2551-0.0409 2.4864-0.01 3.6875 0.125 1.2011 0.13485 2.3792 0.35818 3.5312 0.65625 2.3042 0.59615 4.5184 1.5138 6.6562 2.6875s4.2074 2.599 6.2188 4.25 3.9505 3.5346 5.875 5.5625 3.8413 4.1956 5.7188 6.5 3.7237 4.7382 5.5938 7.2188c3.4728 4.6064 7.0131 9.4056 10.656 14.125l12.875-72.75c-2.2786-1.7696-4.4841-3.6936-6.5938-5.75-2.238-2.1815-4.3823-4.4994-6.4688-6.9062s-4.1192-4.9057-6.0938-7.4375c-3.9491-5.0635-7.6973-10.258-11.438-15.219-1.8701-2.4806-3.7476-4.9144-5.625-7.2188s-3.763-4.5034-5.6875-6.5312-3.8637-3.8802-5.875-5.5312-4.0809-3.0762-6.2188-4.25-4.3521-2.0914-6.6562-2.6875c-1.1521-0.29807-2.3301-0.5214-3.5312-0.65625s-2.4324-0.19716-3.6875-0.15625z" fill="url(#b)"/>
    <path d="m258 206.66c-5.0204 0.16365-10.48 1.7723-16.562 5.25l9.3125 103.94c1.4403-0.81446 2.8449-1.5452 4.2188-2.1562 1.4468-0.64348 2.872-1.1637 4.25-1.5938s2.7172-0.77078 4.0312-1 2.5887-0.36534 3.8438-0.40625c1.2551-0.0409 2.4864 0.0214 3.6875 0.15625s2.3792 0.35818 3.5312 0.65625c2.3042 0.59615 4.5184 1.5138 6.6562 2.6875s4.2074 2.599 6.2188 4.25 3.9505 3.5034 5.875 5.5312 3.8101 4.2269 5.6875 6.5312 3.7549 4.7382 5.625 7.2188c3.7402 4.9611 7.4884 10.155 11.438 15.219 1.9746 2.5318 4.0073 5.0307 6.0938 7.4375s4.2308 4.7247 6.4688 6.9062c2.1097 2.0564 4.3151 3.9804 6.5938 5.75l16.562-93.438c-45.382-3.8738-58.389-74.083-93.531-72.938z" fill="url(#a)"/>
   </g>
   <g transform="matrix(.93969 -.34202 .34202 .93969 -209.98 136.06)">
    <path d="m322.09 445.78c-3.6431-4.7194-7.1835-9.5186-10.656-14.125-1.8701-2.4806-3.7163-4.9144-5.5938-7.2188s-3.7942-4.4721-5.7188-6.5-3.8637-3.9115-5.875-5.5625-4.0809-3.0762-6.2188-4.25-4.3521-2.0914-6.6562-2.6875c-1.1521-0.29807-2.3301-0.5214-3.5312-0.65625s-2.4324-0.16591-3.6875-0.125c-1.2551 0.0409-2.5297 0.14578-3.8438 0.375s-2.6533 0.56992-4.0312 1-2.8032 0.95027-4.25 1.5938c-0.94838 0.42178-1.9265 0.98207-2.9062 1.5l11.594 129.06 32.312 15.156 19.062-107.56z" fill="url(#c)"/>
    <path d="m267.09 310.69c-1.2551 0.0409-2.5297 0.17703-3.8438 0.40625s-2.6533 0.56992-4.0312 1-2.8032 0.95027-4.25 1.5938c-1.3739 0.61102-2.7784 1.3418-4.2188 2.1562l8.375 93.281c0.97974-0.51793 1.9579-1.0782 2.9062-1.5 1.4468-0.64348 2.872-1.1637 4.25-1.5938s2.7172-0.77078 4.0312-1 2.5887-0.33409 3.8438-0.375c1.2551-0.0409 2.4864-0.01 3.6875 0.125 1.2011 0.13485 2.3792 0.35818 3.5312 0.65625 2.3042 0.59615 4.5184 1.5138 6.6562 2.6875s4.2074 2.599 6.2188 4.25 3.9505 3.5346 5.875 5.5625 3.8413 4.1956 5.7188 6.5 3.7237 4.7382 5.5938 7.2188c3.4728 4.6064 7.0131 9.4056 10.656 14.125l12.875-72.75c-2.2786-1.7696-4.4841-3.6936-6.5938-5.75-2.238-2.1815-4.3823-4.4994-6.4688-6.9062s-4.1192-4.9057-6.0938-7.4375c-3.9491-5.0635-7.6973-10.258-11.438-15.219-1.8701-2.4806-3.7476-4.9144-5.625-7.2188s-3.763-4.5034-5.6875-6.5312-3.8637-3.8802-5.875-5.5312-4.0809-3.0762-6.2188-4.25-4.3521-2.0914-6.6562-2.6875c-1.1521-0.29807-2.3301-0.5214-3.5312-0.65625s-2.4324-0.19716-3.6875-0.15625z" fill="url(#b)"/>
    <path d="m258 206.66c-5.0204 0.16365-10.48 1.7723-16.562 5.25l9.3125 103.94c1.4403-0.81446 2.8449-1.5452 4.2188-2.1562 1.4468-0.64348 2.872-1.1637 4.25-1.5938s2.7172-0.77078 4.0312-1 2.5887-0.36534 3.8438-0.40625c1.2551-0.0409 2.4864 0.0214 3.6875 0.15625s2.3792 0.35818 3.5312 0.65625c2.3042 0.59615 4.5184 1.5138 6.6562 2.6875s4.2074 2.599 6.2188 4.25 3.9505 3.5034 5.875 5.5312 3.8101 4.2269 5.6875 6.5312 3.7549 4.7382 5.625 7.2188c3.7402 4.9611 7.4884 10.155 11.438 15.219 1.9746 2.5318 4.0073 5.0307 6.0938 7.4375s4.2308 4.7247 6.4688 6.9062c2.1097 2.0564 4.3151 3.9804 6.5938 5.75l16.562-93.438c-45.382-3.8738-58.389-74.083-93.531-72.938z" fill="url(#a)"/>
   </g>
   <g transform="matrix(.98481 -.17365 .17365 .98481 -110.94 58.844)">
    <path d="m322.09 445.78c-3.6431-4.7194-7.1835-9.5186-10.656-14.125-1.8701-2.4806-3.7163-4.9144-5.5938-7.2188s-3.7942-4.4721-5.7188-6.5-3.8637-3.9115-5.875-5.5625-4.0809-3.0762-6.2188-4.25-4.3521-2.0914-6.6562-2.6875c-1.1521-0.29807-2.3301-0.5214-3.5312-0.65625s-2.4324-0.16591-3.6875-0.125c-1.2551 0.0409-2.5297 0.14578-3.8438 0.375s-2.6533 0.56992-4.0312 1-2.8032 0.95027-4.25 1.5938c-0.94838 0.42178-1.9265 0.98207-2.9062 1.5l11.594 129.06 32.312 15.156 19.062-107.56z" fill="url(#c)"/>
    <path d="m267.09 310.69c-1.2551 0.0409-2.5297 0.17703-3.8438 0.40625s-2.6533 0.56992-4.0312 1-2.8032 0.95027-4.25 1.5938c-1.3739 0.61102-2.7784 1.3418-4.2188 2.1562l8.375 93.281c0.97974-0.51793 1.9579-1.0782 2.9062-1.5 1.4468-0.64348 2.872-1.1637 4.25-1.5938s2.7172-0.77078 4.0312-1 2.5887-0.33409 3.8438-0.375c1.2551-0.0409 2.4864-0.01 3.6875 0.125 1.2011 0.13485 2.3792 0.35818 3.5312 0.65625 2.3042 0.59615 4.5184 1.5138 6.6562 2.6875s4.2074 2.599 6.2188 4.25 3.9505 3.5346 5.875 5.5625 3.8413 4.1956 5.7188 6.5 3.7237 4.7382 5.5938 7.2188c3.4728 4.6064 7.0131 9.4056 10.656 14.125l12.875-72.75c-2.2786-1.7696-4.4841-3.6936-6.5938-5.75-2.238-2.1815-4.3823-4.4994-6.4688-6.9062s-4.1192-4.9057-6.0938-7.4375c-3.9491-5.0635-7.6973-10.258-11.438-15.219-1.8701-2.4806-3.7476-4.9144-5.625-7.2188s-3.763-4.5034-5.6875-6.5312-3.8637-3.8802-5.875-5.5312-4.0809-3.0762-6.2188-4.25-4.3521-2.0914-6.6562-2.6875c-1.1521-0.29807-2.3301-0.5214-3.5312-0.65625s-2.4324-0.19716-3.6875-0.15625z" fill="url(#b)"/>
    <path d="m258 206.66c-5.0204 0.16365-10.48 1.7723-16.562 5.25l9.3125 103.94c1.4403-0.81446 2.8449-1.5452 4.2188-2.1562 1.4468-0.64348 2.872-1.1637 4.25-1.5938s2.7172-0.77078 4.0312-1 2.5887-0.36534 3.8438-0.40625c1.2551-0.0409 2.4864 0.0214 3.6875 0.15625s2.3792 0.35818 3.5312 0.65625c2.3042 0.59615 4.5184 1.5138 6.6562 2.6875s4.2074 2.599 6.2188 4.25 3.9505 3.5034 5.875 5.5312 3.8101 4.2269 5.6875 6.5312 3.7549 4.7382 5.625 7.2188c3.7402 4.9611 7.4884 10.155 11.438 15.219 1.9746 2.5318 4.0073 5.0307 6.0938 7.4375s4.2308 4.7247 6.4688 6.9062c2.1097 2.0564 4.3151 3.9804 6.5938 5.75l16.562-93.438c-45.382-3.8738-58.389-74.083-93.531-72.938z" fill="url(#a)"/>
   </g>
   <path d="m274.16 404.66c-1.2551 0.0409-2.5297 0.14578-3.8438 0.375s-2.6533 0.56992-4.0312 1-2.8032 0.95027-4.25 1.5938c-0.94838 0.42178-1.9265 0.98207-2.9062 1.5l11.594 129.06 20.219 9.4688v-137.75c-0.95604-0.64429-1.9222-1.241-2.9062-1.7812-2.1379-1.1738-4.3521-2.0914-6.6562-2.6875-1.1521-0.29807-2.3301-0.5214-3.5312-0.65625s-2.4324-0.16591-3.6875-0.125z" fill="url(#c)"/>
   <path d="m267.09 310.69c-1.2551 0.0409-2.5297 0.17703-3.8438 0.40625s-2.6533 0.56992-4.0312 1-2.8032 0.95027-4.25 1.5938c-1.3739 0.61102-2.7784 1.3418-4.2188 2.1562l8.375 93.281c0.97974-0.51793 1.9579-1.0782 2.9062-1.5 1.4468-0.64348 2.872-1.1637 4.25-1.5938s2.7172-0.77078 4.0312-1 2.5887-0.33409 3.8438-0.375c1.2551-0.0409 2.4864-0.01 3.6875 0.125 1.2011 0.13485 2.3792 0.35818 3.5312 0.65625 2.3042 0.59615 4.5184 1.5138 6.6562 2.6875 0.98401 0.54024 1.9502 1.137 2.9062 1.7812v-88.094c-1.2302-1.2002-2.4765-2.3297-3.75-3.375-2.0113-1.651-4.0809-3.0762-6.2188-4.25s-4.3521-2.0914-6.6562-2.6875c-1.1521-0.29807-2.3301-0.5214-3.5312-0.65625s-2.4324-0.19716-3.6875-0.15625z" fill="url(#b)"/>
   <path d="m258 206.66c-5.0204 0.16365-10.48 1.7723-16.562 5.25l9.3125 103.94c1.4403-0.81446 2.8449-1.5452 4.2188-2.1562 1.4468-0.64348 2.872-1.1637 4.25-1.5938s2.7172-0.77078 4.0312-1 2.5887-0.36534 3.8438-0.40625c1.2551-0.0409 2.4864 0.0214 3.6875 0.15625s2.3792 0.35818 3.5312 0.65625c2.3042 0.59615 4.5184 1.5138 6.6562 2.6875s4.2074 2.599 6.2188 4.25c1.2735 1.0453 2.5198 2.1748 3.75 3.375v-93.75c-9.7875-12.301-19.815-21.834-32.938-21.406z" fill="url(#a)"/>
  </g>
  <path transform="translate(-197.93 143.41)" d="m532.84 499.44-36.406 48.969-44.344 5.75c-22.243 153.39 6.8648 302.95 36.594 452.47l33.719-85.469 96.875 69.656c-16.89-49.156-30.572-98.276-40.781-147.41 29.602 48.213 61.621 95.174 93.719 142.09l-2.5312-91.844 116.44 26c-38.628-42.761-73.631-87.057-104.66-133.03 44.212 31.362 89.954 60.886 135.75 90.344l-38.062-83.625 117.41-21.312c-132.31-61.79-247.08-141.59-339.44-244.44-0.0472-0.15765-0.10909-0.31107-0.15625-0.46875l-0.1875 0.0937c-8.1467-9.0828-16.144-18.335-23.938-27.781z" filter="url(#p)"/>
  <path transform="matrix(.99913 .04182 -.04182 .99913 774.06 488.99)" d="m-365.73 274.49c-2.668 2.668-15.96-1.6572-18.85 0.76814-2.8904 2.4253-0.93897 16.266-4.0298 18.43-3.0908 2.1642-15.429-4.4034-18.697-2.5168-3.2676 1.8866-3.7493 15.856-7.1689 17.451-3.4196 1.5946-14.43-7.0158-17.976-5.7253s-6.4457 14.964-10.09 15.941-12.993-9.415-16.709-8.7598c-3.7158 0.65519-8.9462 13.617-12.705 13.946-3.7588 0.32885-11.161-11.528-14.934-11.528-3.7731 0-11.175 11.857-14.934 11.528s-8.9892-13.291-12.705-13.946c-3.7158-0.6552-13.064 9.7363-16.709 8.7598s-6.5447-14.65-10.09-15.941-14.556 7.3199-17.976 5.7253-3.9013-15.564-7.1689-17.451-15.606 4.681-18.697 2.5168-1.1394-16.005-4.0298-18.43c-2.8904-2.4253-16.182 1.8999-18.85-0.76814s1.6572-15.96-0.76814-18.85c-2.4253-2.8904-16.266-0.93897-18.43-4.0298-2.1642-3.0908 4.4034-15.429 2.5168-18.697-1.8866-3.2676-15.856-3.7493-17.451-7.1689-1.5946-3.4196 7.0158-14.43 5.7253-17.976s-14.964-6.4457-15.941-10.09 9.415-12.993 8.7598-16.709c-0.6552-3.7158-13.617-8.9462-13.946-12.705-0.32885-3.7588 11.528-11.161 11.528-14.934 0-3.7731-11.857-11.175-11.528-14.934s13.291-8.9892 13.946-12.705c0.65519-3.7158-9.7364-13.064-8.7598-16.709s14.65-6.5447 15.941-10.09-7.3199-14.556-5.7253-17.976c1.5946-3.4196 15.564-3.9013 17.451-7.1689 1.8866-3.2676-4.681-15.606-2.5168-18.697 2.1642-3.0908 16.005-1.1394 18.43-4.0297s-1.8999-16.182 0.76814-18.85c2.668-2.668 15.96 1.6572 18.85-0.76814 2.8904-2.4253 0.93898-16.266 4.0298-18.43 3.0908-2.1642 15.429 4.4034 18.697 2.5168s3.7493-15.856 7.1689-17.451c3.4196-1.5946 14.43 7.0158 17.976 5.7253s6.4457-14.964 10.09-15.941 12.993 9.415 16.709 8.7598c3.7158-0.6552 8.9462-13.617 12.705-13.946 3.7588-0.32885 11.161 11.528 14.934 11.528 3.7731 0 11.175-11.857 14.934-11.528 3.7588 0.32885 8.9892 13.291 12.705 13.946 3.7158 0.6552 13.064-9.7363 16.709-8.7598 3.6446 0.97656 6.5447 14.65 10.09 15.941s14.556-7.3199 17.976-5.7253c3.4196 1.5946 3.9013 15.564 7.1689 17.451s15.606-4.681 18.697-2.5168c3.0908 2.1642 1.1394 16.005 4.0298 18.43s16.182-1.8999 18.85 0.76814c2.668 2.668-1.6572 15.96 0.76814 18.85 2.4253 2.8904 16.266 0.93898 18.43 4.0297 2.1642 3.0908-4.4034 15.429-2.5168 18.697 1.8866 3.2676 15.856 3.7493 17.451 7.1689 1.5946 3.4196-7.0158 14.43-5.7253 17.976 1.2905 3.5456 14.964 6.4457 15.941 10.09s-9.415 12.993-8.7598 16.709c0.65519 3.7158 13.617 8.9462 13.946 12.705 0.32885 3.7588-11.528 11.161-11.528 14.934 0 3.7731 11.857 11.175 11.528 14.934-0.32885 3.7588-13.291 8.9892-13.946 12.705-0.6552 3.7158 9.7363 13.064 8.7598 16.709s-14.65 6.5447-15.941 10.09 7.3199 14.556 5.7253 17.976c-1.5946 3.4196-15.564 3.9013-17.451 7.1689-1.8866 3.2676 4.681 15.606 2.5168 18.697-2.1642 3.0908-16.005 1.1394-18.43 4.0298-2.4253 2.8904 1.8999 16.182-0.76814 18.85z" fill="#000098"/>
  <path d="m254.15 697.56c-22.243 153.39 6.8647 302.96 36.594 452.48l33.74-85.464 96.875 69.658c-51.696-150.46-73.595-300.8-56.538-450.99z" fill="url(#j)"/>
  <path d="m262.89 727.18c39.803 149.8 125.32 275.91 211.4 401.73l-2.5449-91.848 116.45 26.003c-106.65-118.06-185.84-247.71-229.16-392.53z" fill="url(#i)"/>
  <path d="m268.36 732.42c94.9 122.55 222.71 205.5 350.93 287.97l-38.046-83.636 117.4-21.306c-144.15-67.32-267.51-155.99-363.71-272.59z" fill="url(#h)"/>
  <path transform="matrix(1.4577 0 0 1.4577 625.4 274.96)" d="m-135.36 238.18c0 55.789-45.226 101.02-101.02 101.02s-101.02-45.226-101.02-101.02 45.226-101.02 101.02-101.02 101.02 45.226 101.02 101.02z" filter="url(#o)" stroke="#000" stroke-width="6.86"/>
  <path transform="matrix(1.4577 0 0 1.4577 625.4 274.96)" d="m-135.36 238.18c0 55.789-45.226 101.02-101.02 101.02s-101.02-45.226-101.02-101.02 45.226-101.02 101.02-101.02 101.02 45.226 101.02 101.02z" fill="url(#f)" stroke="url(#e)" stroke-width="6.86"/>
  <g transform="translate(6.0609 2.0203)" fill="url(#d)">
   <path d="m299.36 515.8v162.84c-9e-5 12.236 0.53829 20.043 1.6152 23.42 1.0767 3.3771 3.3281 6.1425 6.7543 8.296 3.426 2.1535 8.9077 3.2303 16.445 3.2303h4.5518v5.4328h-104.84v-5.4328h5.2859c8.5162 0 14.585-0.97887 18.207-2.9366 3.6218-1.9578 6.069-4.6497 7.3416-8.0758 1.2725-3.426 1.9088-11.404 1.9088-23.934v-103.22c-6e-5 -9.2013-0.44055-14.952-1.3215-17.253-0.88104-2.3002-2.5207-4.258-4.9189-5.8733-2.3983-1.615-5.1636-2.4226-8.296-2.4227-4.9923 1.7e-4 -11.061 1.5664-18.207 4.6986l-2.643-5.2859 73.269-33.478z" fill="url(#d)"/>
  </g>
 </g>
</svg>
